<svg xmlns="http://www.w3.org/2000/svg" xmlns:xlink="http://www.w3.org/1999/xlink" version="1.1" width="273.2912878417969" height="108.89999908447265" viewBox="0.358696608543396 0.6400000143051148 273.2912878417969 108.89999908447265">
  <!-- Exported by Scratch - http://scratch.mit.edu/ -->
  <g id="ID0.0807381416670978">
    <g id="Page-1">
      <g id="City_Truck-01">
        <g id="Tire-1">
          <path id="Oval" fill="#F7C1D8" stroke="none" stroke-width="1" d="M 45.35 84.91 C 47.717 84.91 49.862 85.871 51.415 87.425 C 52.969 88.978 53.93 91.123 53.93 93.49 C 53.93 95.857 52.969 98.002 51.415 99.555 C 49.862 101.109 47.717 102.07 45.35 102.07 C 42.983 102.07 40.838 101.109 39.285 99.555 C 37.731 98.002 36.77 95.857 36.77 93.49 C 36.77 91.123 37.731 88.978 39.285 87.425 C 40.838 85.871 42.983 84.91 45.35 84.91 Z "/>
          <path id="Shape" fill="#5E154D" stroke="#5E154D" stroke-width="1.44" stroke-linecap="round" stroke-linejoin="round" d="M 45.35 78.82 C 37.066 78.82 30.35 85.536 30.35 93.82 C 30.35 102.104 37.066 108.82 45.35 108.82 C 53.634 108.82 60.35 102.104 60.35 93.82 C 60.35 85.536 53.634 78.82 45.35 78.82 Z M 45.35 101.2 C 41.249 101.101 37.995 97.714 38.061 93.613 C 38.126 89.512 41.487 86.23 45.589 86.262 C 49.69 86.295 52.999 89.628 53 93.73 C 53.001 95.743 52.189 97.671 50.749 99.077 C 49.309 100.483 47.362 101.249 45.35 101.2 Z "/>
          <path id="Oval" fill="#FFFFFF" stroke="#DA53D6" stroke-width="1.08" stroke-linecap="round" stroke-linejoin="round" d="M 45.35 89.89 C 46.409 89.89 47.369 90.32 48.065 91.015 C 48.76 91.711 49.19 92.671 49.19 93.73 C 49.19 94.789 48.76 95.749 48.065 96.445 C 47.369 97.14 46.409 97.57 45.35 97.57 C 44.291 97.57 43.331 97.14 42.635 96.445 C 41.94 95.749 41.51 94.789 41.51 93.73 C 41.51 92.671 41.94 91.711 42.635 91.015 C 43.331 90.32 44.291 89.89 45.35 89.89 Z "/>
        </g>
        <g id="Tire-2">
          <path id="Path" fill="#F7C1D8" stroke="none" stroke-width="1" d="M 174.77 81.76 C 168.143 81.76 162.77 87.133 162.77 93.76 C 162.77 100.387 168.143 105.76 174.77 105.76 C 181.397 105.76 186.77 100.387 186.77 93.76 C 186.77 87.133 181.397 81.76 174.77 81.76 Z "/>
          <path id="Shape" fill="#5E154D" stroke="#5E154D" stroke-width="1.44" stroke-linecap="round" stroke-linejoin="round" d="M 174.77 78.82 C 166.486 78.82 159.77 85.536 159.77 93.82 C 159.77 102.104 166.486 108.82 174.77 108.82 C 183.054 108.82 189.77 102.104 189.77 93.82 C 189.77 85.536 183.054 78.82 174.77 78.82 Z M 174.77 101.2 C 171.749 101.2 169.025 99.38 167.869 96.589 C 166.712 93.797 167.352 90.584 169.488 88.448 C 171.624 86.312 174.837 85.672 177.629 86.829 C 180.42 87.985 182.24 90.709 182.24 93.73 C 182.248 95.714 181.464 97.618 180.061 99.021 C 178.658 100.424 176.754 101.208 174.77 101.2 Z "/>
          <path id="Oval" fill="#FFFFFF" stroke="#DA53D6" stroke-width="1.08" stroke-linecap="round" stroke-linejoin="round" d="M 174.77 89.89 C 175.829 89.89 176.789 90.32 177.485 91.015 C 178.18 91.711 178.61 92.671 178.61 93.73 C 178.61 94.789 178.18 95.749 177.485 96.445 C 176.789 97.14 175.829 97.57 174.77 97.57 C 173.711 97.57 172.751 97.14 172.055 96.445 C 171.36 95.749 170.93 94.789 170.93 93.73 C 170.93 92.671 171.36 91.711 172.055 91.015 C 172.751 90.32 173.711 89.89 174.77 89.89 Z "/>
        </g>
        <g id="Tire-3">
          <path id="Path" fill="#F7C1D8" stroke="none" stroke-width="1" d="M 218 81.76 C 211.373 81.76 206 87.133 206 93.76 C 206 100.387 211.373 105.76 218 105.76 C 224.627 105.76 230 100.387 230 93.76 C 230 87.133 224.627 81.76 218 81.76 Z "/>
          <path id="Shape" fill="#5E154D" stroke="#5E154D" stroke-width="1.44" stroke-linecap="round" stroke-linejoin="round" d="M 218 78.82 C 209.716 78.82 203 85.536 203 93.82 C 203 102.104 209.716 108.82 218 108.82 C 226.284 108.82 233 102.104 233 93.82 C 233 89.842 231.42 86.026 228.607 83.213 C 225.794 80.4 221.978 78.82 218 78.82 Z M 218 101.2 C 213.874 101.2 210.53 97.856 210.53 93.73 C 210.53 89.604 213.874 86.26 218 86.26 C 222.126 86.26 225.47 89.604 225.47 93.73 C 225.47 97.856 222.126 101.2 218 101.2 Z "/>
          <path id="Oval" fill="#FFFFFF" stroke="#DA53D6" stroke-width="1.08" stroke-linecap="round" stroke-linejoin="round" d="M 217.91 89.89 C 218.969 89.89 219.929 90.32 220.625 91.015 C 221.32 91.711 221.75 92.671 221.75 93.73 C 221.75 94.789 221.32 95.749 220.625 96.445 C 219.929 97.14 218.969 97.57 217.91 97.57 C 216.851 97.57 215.891 97.14 215.195 96.445 C 214.5 95.749 214.07 94.789 214.07 93.73 C 214.07 92.671 214.5 91.711 215.195 91.015 C 215.891 90.32 216.851 89.89 217.91 89.89 Z "/>
        </g>
        <g id="Group-3">
          <g id="Group-2">
            <path id="Rectangle" fill="#FDBB38" stroke="#5E154D" stroke-width="1.44" d="M 113.75 83.2 L 141.83 83.2 L 141.83 96.37 L 113.75 96.37 L 113.75 83.2 Z "/>
            <path id="Path" fill="none" stroke="#5E154D" stroke-width="1.08" stroke-linecap="round" d="M 122.03 83.2 L 122.03 96.37 "/>
            <path id="Path" fill="none" stroke="#5E154D" stroke-width="1.08" stroke-linecap="round" d="M 133.58 83.2 L 133.58 96.37 "/>
          </g>
          <path id="Rectangle" fill="#FFFFFF" stroke="#5E154D" stroke-width="1.44" stroke-linecap="round" d="M 88.46 73.81 L 272.93 73.81 L 272.93 83.2 L 88.46 83.2 L 88.46 73.81 Z "/>
          <path id="Rectangle" fill="#FDBB38" stroke="#5E154D" stroke-width="1.44" d="M 88.46 83.2 L 266.66 83.2 L 266.66 93.73 L 88.46 93.73 L 88.46 83.2 Z "/>
        </g>
        <g id="Group">
          <path id="Path" fill="#25B0B7" stroke="none" stroke-width="1" d="M 11.75 56.74 L 32 45.34 L 32.93 40.93 C 32.93 40.93 14.66 51.04 10.73 53.26 C 6.26 55.75 6.29 57.91 6.29 63.22 L 6.29 93.73 L 9.47 93.73 L 9.47 62.92 C 9.53 60.22 9.62 58 11.75 56.74 Z "/>
          <path id="Path" fill="#43C3D7" stroke="none" stroke-width="1" d="M 47.96 1.36 C 43.61 1.36 41.75 2.53 40.73 7.09 C 40.52 8.17 40.01 10.33 39.41 13.09 L 43.1 13.09 C 44.336 13.106 45.334 14.104 45.35 15.34 L 45.35 36.67 C 45.35 37.918 44.347 38.934 43.1 38.95 L 33.47 38.95 L 32.99 40.93 L 32 45.34 L 11.69 56.74 C 9.56 57.94 9.47 60.22 9.47 62.92 L 9.47 93.73 L 26.36 93.73 C 26.36 83.424 34.714 75.07 45.02 75.07 C 55.326 75.07 63.68 83.424 63.68 93.73 L 88.4 93.73 L 88.4 1.36 L 47.96 1.36 Z "/>
          <path id="Rectangle" fill="none" stroke="#009CC6" stroke-width="1.08" stroke-linecap="round" stroke-linejoin="round" d="M 69.71 44.8 L 79.07 44.8 L 79.07 48.34 L 69.71 48.34 L 69.71 44.8 Z "/>
          <path id="Rectangle" fill="none" stroke="#5E154D" stroke-width="1.44" stroke-linecap="round" stroke-linejoin="round" d="M 16.82 79.9 L 22.82 79.9 L 22.82 83.23 L 16.82 83.23 L 16.82 79.9 Z "/>
          <path id="Path" fill="none" stroke="#009CC6" stroke-width="1.08" stroke-linecap="round" stroke-linejoin="round" d="M 80.78 8.05 L 53 8.05 C 51.582 8.066 50.436 9.212 50.42 10.63 L 50.42 70.33 C 59.125 71.715 66.039 78.389 67.73 87.04 L 80.81 87.04 C 82.228 87.024 83.374 85.878 83.39 84.46 L 83.39 10.63 C 83.374 9.2 82.21 8.05 80.78 8.05 Z "/>
          <path id="Rectangle" fill="none" stroke="#009CC6" stroke-width="1.08" stroke-linecap="round" stroke-linejoin="round" d="M 54.53 47.23 L 58.01 47.23 L 58.01 53.68 L 54.53 53.68 L 54.53 47.23 Z "/>
          <path id="Path" fill="#F7C1D8" stroke="none" stroke-width="1" d="M 79.1 13.09 L 76.25 13.09 L 67.22 38.95 L 79.1 38.95 L 79.1 13.09 "/>
          <path id="Path" fill="#F7C1D8" stroke="none" stroke-width="1" d="M 54.65 13.09 L 54.65 38.95 L 58.31 38.95 L 67.34 13.09 L 54.65 13.09 "/>
          <path id="Path" fill="#FFEEF6" stroke="none" stroke-width="1" d="M 67.34 13.09 L 58.31 38.95 L 62.84 38.95 L 71.9 13.09 L 67.34 13.09 "/>
          <path id="Path" fill="#F7C1D8" stroke="none" stroke-width="1" d="M 43.1 13 L 39.41 13 C 37.58 21.01 34.58 34 33.41 38.86 L 36.83 38.86 L 45.26 14.86 C 45.054 13.817 44.162 13.049 43.1 13 Z "/>
          <path id="Path" fill="#F7C1D8" stroke="none" stroke-width="1" d="M 39.41 38.95 L 43.1 38.95 C 44.347 38.934 45.35 37.918 45.35 36.67 L 45.35 21.34 L 39.41 38.95 Z "/>
          <path id="Path" fill="#FFEEF6" stroke="none" stroke-width="1" d="M 45.35 15.34 C 45.365 15.19 45.365 15.04 45.35 14.89 L 36.92 38.89 L 39.44 38.89 L 45.44 21.28 L 45.35 15.34 Z "/>
          <path id="Path" fill="#F7C1D8" stroke="none" stroke-width="1" d="M 71.9 13.09 L 62.84 38.95 L 65.21 38.95 L 74.24 13.09 L 71.9 13.09 "/>
          <path id="Path" fill="#FFEEF6" stroke="none" stroke-width="1" d="M 74.24 13.09 L 65.21 38.95 L 67.22 38.95 L 76.25 13.09 L 74.24 13.09 "/>
          <path id="Path" fill="#43C3D7" stroke="#5E154D" stroke-width="1.08" stroke-linecap="round" stroke-linejoin="round" d="M 36.77 7.18 L 33.47 20.62 L 28.82 20.62 C 28.82 20.62 30.5 14.23 31.49 10.9 C 32.21 8.5 32.51 7.18 33.77 7.18 L 36.77 7.18 Z "/>
          <path id="Path" fill="#43C3D7" stroke="#5E154D" stroke-width="1.08" stroke-linecap="round" stroke-linejoin="round" d="M 36.77 7.18 L 40.73 7.18 L 39.95 10.66 L 35.9 10.66 L 36.77 7.18 "/>
          <path id="Path" fill="none" stroke="#5E154D" stroke-width="1.44" stroke-linejoin="round" d="M 47.96 1.36 C 43.61 1.36 41.75 2.53 40.73 7.09 C 40.52 8.17 40.01 10.33 39.41 13.09 C 37.58 21.1 34.58 34.09 33.41 38.95 L 32.93 40.93 C 32.93 40.93 14.66 51.04 10.73 53.26 C 6.26 55.75 6.29 57.91 6.29 63.22 L 6.29 93.73 L 26.36 93.73 C 26.36 83.424 34.714 75.07 45.02 75.07 C 55.326 75.07 63.68 83.424 63.68 93.73 L 88.4 93.73 L 88.4 1.36 L 47.96 1.36 Z "/>
          <path id="Rectangle" fill="none" stroke="#5E154D" stroke-width="1.08" stroke-linecap="round" stroke-linejoin="round" d="M 54.65 13.09 L 79.1 13.09 L 79.1 38.95 L 54.65 38.95 L 54.65 13.09 Z "/>
          <path id="Path" fill="none" stroke="#5E154D" stroke-width="1.44" stroke-linecap="round" stroke-linejoin="round" d="M 47.96 1.36 C 43.61 1.36 41.75 2.53 40.73 7.09 C 40.52 8.17 40.01 10.33 39.41 13.09 C 37.58 21.1 34.58 34.09 33.41 38.95 L 32.93 40.93 C 32.93 40.93 14.66 51.04 10.73 53.26 C 6.26 55.75 6.29 57.91 6.29 63.22 L 6.29 93.73 L 26.36 93.73 C 26.36 83.424 34.714 75.07 45.02 75.07 C 55.326 75.07 63.68 83.424 63.68 93.73 L 88.4 93.73 L 88.4 1.36 L 47.96 1.36 Z "/>
          <path id="Path" fill="none" stroke="#5E154D" stroke-width="1.08" stroke-linecap="round" stroke-linejoin="round" d="M 45.32 14.89 C 45.085 13.849 44.167 13.105 43.1 13.09 L 39.41 13.09 C 37.58 21.1 34.58 34.09 33.41 38.95 L 43.1 38.95 C 44.347 38.934 45.35 37.918 45.35 36.67 L 45.35 15.34 C 45.355 15.189 45.345 15.039 45.32 14.89 Z "/>
          <path id="Path" fill="#00828C" stroke="#5E154D" stroke-width="1.08" stroke-linecap="round" stroke-linejoin="round" d="M 4.1 85.66 L 4.1 88.45 L 17.33 88.45 L 17.93 85.66 L 4.1 85.66 "/>
          <path id="Path" fill="#00828C" stroke="#5E154D" stroke-width="1.08" stroke-linecap="round" stroke-linejoin="round" d="M 4.1 90.91 L 16.82 90.91 L 17.33 88.45 L 4.1 88.45 L 4.1 90.91 "/>
          <path id="Path" fill="#00828C" stroke="#5E154D" stroke-width="1.08" stroke-linecap="round" stroke-linejoin="round" d="M 18.44 83.2 L 4.1 83.2 L 4.1 85.66 L 17.93 85.66 L 18.44 83.2 "/>
          <path id="Path" fill="#FDBB38" stroke="none" stroke-width="1" d="M 6.35 67.96 L 4.1 67.96 C 2.36 67.96 1.61 70.51 1.31 73.09 L 6.35 73.09 L 6.35 67.96 Z "/>
          <path id="Path" fill="#FFFFFF" stroke="none" stroke-width="1" d="M 1.31 73 C 1.109 74.702 1.039 76.417 1.1 78.13 L 6.35 78.13 L 6.35 73 L 1.31 73 Z "/>
          <path id="Path" fill="none" stroke="#5E154D" stroke-width="1.44" stroke-linecap="round" stroke-linejoin="round" d="M 4.1 67.96 C 2.36 67.96 1.61 70.51 1.31 73.09 C 1.109 74.792 1.039 76.507 1.1 78.22 L 6.35 78.22 L 6.35 67.96 L 4.1 67.96 Z "/>
        </g>
      </g>
    </g>
  </g>
</svg>