<svg xmlns="http://www.w3.org/2000/svg" xmlns:xlink="http://www.w3.org/1999/xlink" version="1.1" width="410.8136413574219" height="118.65052490234375" viewBox="0.14636883735656736 0.0800000190734863 410.8136413574219 118.65052490234375">
  <!-- Exported by Scratch - http://scratch.mit.edu/ -->
  <g id="ID0.23235925054177642">
    <g id="Page-1">
      <g id="City_Truck-03">
        <g id="Platform">
          <path id="Path" fill="#FDBB38" stroke="#5E154D" stroke-width="1.44" d="M 266.63 92.18 L 224.72 92.18 L 88.43 92.18 L 88.43 102.74 L 224.72 102.74 L 266.63 102.74 L 402.92 102.74 L 402.92 92.18 L 266.63 92.18 "/>
          <path id="Rectangle" fill="#FDBB38" stroke="#5E154D" stroke-width="1.44" d="M 113.72 92.18 L 141.8 92.18 L 141.8 105.35 L 113.72 105.35 L 113.72 92.18 Z "/>
          <path id="Path" fill="none" stroke="#5E154D" stroke-width="1.08" stroke-linecap="round" d="M 122 92.18 L 122 105.35 "/>
          <path id="Path" fill="none" stroke="#5E154D" stroke-width="1.08" stroke-linecap="round" d="M 133.55 92.18 L 133.55 105.35 "/>
          <path id="Rectangle" fill="#FDBB38" stroke="#5E154D" stroke-width="1.44" d="M 250.04 92.18 L 278.12 92.18 L 278.12 105.35 L 250.04 105.35 L 250.04 92.18 Z "/>
          <g id="Group">
            <path id="Path" fill="none" stroke="#5E154D" stroke-width="1.08" d="M 258.29 92.18 L 258.29 105.35 "/>
            <path id="Path" fill="none" stroke="#5E154D" stroke-width="1.08" d="M 269.84 92.18 L 269.84 105.35 "/>
          </g>
        </g>
        <g id="tIRE-1">
          <path id="Oval" fill="#F7C1D8" stroke="none" stroke-width="1" d="M 45.32 93.92 C 47.687 93.92 49.832 94.881 51.385 96.435 C 52.939 97.988 53.9 100.133 53.9 102.5 C 53.9 104.867 52.939 107.012 51.385 108.565 C 49.832 110.119 47.687 111.08 45.32 111.08 C 42.953 111.08 40.808 110.119 39.255 108.565 C 37.701 107.012 36.74 104.867 36.74 102.5 C 36.74 100.133 37.701 97.988 39.255 96.435 C 40.808 94.881 42.953 93.92 45.32 93.92 Z "/>
          <path id="Shape" fill="#5E154D" stroke="#5E154D" stroke-width="1.44" stroke-linecap="round" stroke-linejoin="round" d="M 45.32 87.83 C 37.036 87.83 30.32 94.546 30.32 102.83 C 30.32 111.114 37.036 117.83 45.32 117.83 C 53.604 117.83 60.32 111.114 60.32 102.83 C 60.32 98.852 58.74 95.036 55.927 92.223 C 53.114 89.41 49.298 87.83 45.32 87.83 Z M 45.32 110.21 C 42.281 110.222 39.535 108.399 38.367 105.594 C 37.198 102.789 37.838 99.556 39.987 97.407 C 42.136 95.258 45.369 94.618 48.174 95.787 C 50.979 96.955 52.802 99.701 52.79 102.74 C 52.806 104.734 52.027 106.653 50.625 108.072 C 49.223 109.49 47.314 110.292 45.32 110.3 L 45.32 110.21 Z "/>
          <path id="Oval" fill="#FFFFFF" stroke="#DA53D6" stroke-width="1.08" stroke-linecap="round" stroke-linejoin="round" d="M 45.32 98.9 C 46.379 98.9 47.339 99.33 48.035 100.025 C 48.73 100.721 49.16 101.681 49.16 102.74 C 49.16 103.799 48.73 104.759 48.035 105.455 C 47.339 106.15 46.379 106.58 45.32 106.58 C 44.261 106.58 43.301 106.15 42.605 105.455 C 41.91 104.759 41.48 103.799 41.48 102.74 C 41.48 101.681 41.91 100.721 42.605 100.025 C 43.301 99.33 44.261 98.9 45.32 98.9 Z "/>
        </g>
        <g id="Tire-2">
          <path id="Path" fill="#F7C1D8" stroke="none" stroke-width="1" d="M 174.74 90.74 C 168.113 90.74 162.74 96.113 162.74 102.74 C 162.74 109.367 168.113 114.74 174.74 114.74 C 181.367 114.74 186.74 109.367 186.74 102.74 C 186.74 96.113 181.367 90.74 174.74 90.74 Z "/>
          <path id="Shape" fill="#5E154D" stroke="#5E154D" stroke-width="1.44" stroke-linecap="round" stroke-linejoin="round" d="M 174.74 87.83 C 168.673 87.83 163.204 91.485 160.882 97.09 C 158.56 102.695 159.843 109.147 164.133 113.437 C 168.423 117.727 174.875 119.01 180.48 116.688 C 186.085 114.366 189.74 108.897 189.74 102.83 C 189.74 94.546 183.024 87.83 174.74 87.83 Z M 174.74 110.21 C 171.701 110.222 168.955 108.399 167.787 105.594 C 166.618 102.789 167.258 99.556 169.407 97.407 C 171.556 95.258 174.789 94.618 177.594 95.787 C 180.399 96.955 182.222 99.701 182.21 102.74 C 182.226 104.734 181.447 106.653 180.045 108.072 C 178.643 109.49 176.734 110.292 174.74 110.3 L 174.74 110.21 Z "/>
          <path id="Oval" fill="#FFFFFF" stroke="#DA53D6" stroke-width="1.08" stroke-linecap="round" stroke-linejoin="round" d="M 174.74 98.9 C 175.799 98.9 176.759 99.33 177.455 100.025 C 178.15 100.721 178.58 101.681 178.58 102.74 C 178.58 103.799 178.15 104.759 177.455 105.455 C 176.759 106.15 175.799 106.58 174.74 106.58 C 173.681 106.58 172.721 106.15 172.025 105.455 C 171.33 104.759 170.9 103.799 170.9 102.74 C 170.9 101.681 171.33 100.721 172.025 100.025 C 172.721 99.33 173.681 98.9 174.74 98.9 Z "/>
        </g>
        <g id="Tire-3">
          <path id="Path" fill="#F7C1D8" stroke="none" stroke-width="1" d="M 217.85 90.74 C 211.223 90.74 205.85 96.113 205.85 102.74 C 205.85 109.367 211.223 114.74 217.85 114.74 C 224.477 114.74 229.85 109.367 229.85 102.74 C 229.85 96.113 224.477 90.74 217.85 90.74 Z "/>
          <path id="Shape" fill="#5E154D" stroke="#5E154D" stroke-width="1.44" stroke-linecap="round" stroke-linejoin="round" d="M 217.85 87.83 C 209.566 87.83 202.85 94.546 202.85 102.83 C 202.85 111.114 209.566 117.83 217.85 117.83 C 226.134 117.83 232.85 111.114 232.85 102.83 C 232.85 94.546 226.134 87.83 217.85 87.83 Z M 217.85 110.21 C 214.814 110.21 212.077 108.379 210.918 105.573 C 209.759 102.767 210.406 99.539 212.557 97.396 C 214.709 95.253 217.939 94.619 220.741 95.79 C 223.543 96.96 225.362 99.704 225.35 102.74 C 225.366 104.739 224.583 106.663 223.175 108.082 C 221.766 109.502 219.85 110.3 217.85 110.3 L 217.85 110.21 Z "/>
          <path id="Oval" fill="#FFFFFF" stroke="#DA53D6" stroke-width="1.08" stroke-linecap="round" stroke-linejoin="round" d="M 217.85 98.9 C 218.909 98.9 219.869 99.33 220.565 100.025 C 221.26 100.721 221.69 101.681 221.69 102.74 C 221.69 103.799 221.26 104.759 220.565 105.455 C 219.869 106.15 218.909 106.58 217.85 106.58 C 216.791 106.58 215.831 106.15 215.135 105.455 C 214.44 104.759 214.01 103.799 214.01 102.74 C 214.01 101.681 214.44 100.721 215.135 100.025 C 215.831 99.33 216.791 98.9 217.85 98.9 Z "/>
        </g>
        <path id="Rectangle" fill="#FFFFFF" stroke="#5E154D" stroke-width="1.44" stroke-linecap="round" stroke-linejoin="round" d="M 88.43 82.79 L 410.06 82.79 L 410.06 92.18 L 88.43 92.18 L 88.43 82.79 Z "/>
        <g id="back-of-truck">
          <path id="Rectangle" fill="#5E154D" stroke="#5E154D" stroke-width="1.08" stroke-linecap="round" stroke-linejoin="round" d="M 88.43 14.96 L 92.39 14.96 L 92.39 82.79 L 88.43 82.79 L 88.43 14.96 Z "/>
          <path id="Path" fill="none" stroke="#FC9FE4" stroke-width="1.44" stroke-linejoin="round" d="M 92.39 17.03 L 268.19 17.03 "/>
          <path id="Path" fill="none" stroke="#FC9FE4" stroke-width="1.44" stroke-linejoin="round" d="M 92.39 33.77 L 268.19 33.77 "/>
          <path id="Path" fill="none" stroke="#FC9FE4" stroke-width="1.44" stroke-linejoin="round" d="M 92.39 50.51 L 268.19 50.51 "/>
          <path id="Path" fill="none" stroke="#FC9FE4" stroke-width="1.44" stroke-linejoin="round" d="M 92.39 67.25 L 268.19 67.25 "/>
          <path id="Path" fill="#DA53D6" stroke="none" stroke-width="1" d="M 395.96 0.98 L 92.39 0.98 L 92.39 82.79 L 405.41 82.79 L 405.41 12.17 C 405.41 4.04 401.72 0.98 395.96 0.98 Z "/>
          <path id="Path" fill="none" stroke="#FC9FE4" stroke-width="1.44" stroke-linejoin="round" d="M 92.39 17.03 L 405.41 17.03 "/>
          <path id="Path" fill="none" stroke="#FC9FE4" stroke-width="1.44" stroke-linejoin="round" d="M 92.39 33.77 L 405.41 33.77 "/>
          <path id="Path" fill="none" stroke="#FC9FE4" stroke-width="1.44" stroke-linejoin="round" d="M 92.39 50.51 L 405.41 50.51 "/>
          <path id="Path" fill="none" stroke="#FC9FE4" stroke-width="1.44" stroke-linejoin="round" d="M 92.39 67.25 L 405.41 67.25 "/>
          <path id="Path" fill="none" stroke="#5E154D" stroke-width="1.44" stroke-linecap="round" stroke-linejoin="round" d="M 405.41 82.79 L 92.39 82.79 L 92.39 0.98 L 395.96 0.98 C 401.72 0.98 405.41 3.98 405.41 12.17 L 405.41 82.79 Z "/>
          <path id="Path" fill="none" stroke="#FFFFFF" stroke-width="1.8" stroke-linecap="round" stroke-linejoin="round" d="M 391.91 5.3 L 395.12 5.3 C 396.616 5.066 398.136 5.544 399.23 6.591 C 400.324 7.638 400.868 9.135 400.7 10.64 L 400.7 12.98 "/>
          <path id="Path" fill="none" stroke="#FFFFFF" stroke-width="1.8" stroke-linecap="round" stroke-linejoin="round" d="M 363.41 5.3 L 387.59 5.3 "/>
        </g>
        <g id="Front-of-truck">
          <path id="Path" fill="#25B0B7" stroke="none" stroke-width="1" d="M 11.72 65.72 L 32.03 54.32 L 32.96 49.94 L 10.76 62.3 C 6.29 64.79 6.29 66.95 6.29 72.29 L 6.29 102.74 L 9.5 102.74 L 9.5 71.9 C 9.5 69.23 9.56 66.95 11.72 65.72 Z "/>
          <path id="Path" fill="#43C3D7" stroke="none" stroke-width="1" d="M 47.93 10.37 C 43.58 10.37 41.69 11.54 40.7 16.1 C 40.49 17.18 39.98 19.34 39.35 22.1 L 43.07 22.1 C 44.317 22.116 45.32 23.132 45.32 24.38 L 45.32 45.71 C 45.304 46.946 44.306 47.944 43.07 47.96 L 33.44 47.96 L 32.96 49.97 L 32.03 54.35 L 11.72 65.75 C 9.56 66.98 9.5 69.26 9.5 71.93 L 9.5 102.74 L 26.39 102.74 C 26.116 95.9 29.608 89.46 35.49 85.958 C 41.372 82.457 48.698 82.457 54.58 85.958 C 60.462 89.46 63.954 95.9 63.68 102.74 L 88.55 102.74 L 88.55 10.37 L 47.93 10.37 Z "/>
          <path id="Rectangle" fill="none" stroke="#5E154D" stroke-width="1.44" stroke-linecap="round" stroke-linejoin="round" d="M 16.76 88.88 L 22.76 88.88 L 22.76 92.21 L 16.76 92.21 L 16.76 88.88 Z "/>
          <path id="Path" fill="none" stroke="#009CC6" stroke-width="1.08" stroke-linecap="round" stroke-linejoin="round" d="M 80.72 17.03 L 52.94 17.03 C 51.51 17.046 50.36 18.21 50.36 19.64 L 50.36 79.34 C 59.019 80.771 65.875 87.435 67.55 96.05 L 80.6 96.05 C 81.292 96.05 81.956 95.775 82.446 95.286 C 82.935 94.796 83.21 94.132 83.21 93.44 L 83.21 19.64 C 83.211 18.244 82.114 17.094 80.72 17.03 Z "/>
          <path id="Rectangle" fill="none" stroke="#009CC6" stroke-width="1.08" stroke-linecap="round" stroke-linejoin="round" d="M 54.5 56.24 L 57.98 56.24 L 57.98 62.69 L 54.5 62.69 L 54.5 56.24 Z "/>
          <path id="Rectangle" fill="none" stroke="#009CC6" stroke-width="1.08" stroke-linecap="round" stroke-linejoin="round" d="M 69.68 53.81 L 79.04 53.81 L 79.04 57.35 L 69.68 57.35 L 69.68 53.81 Z "/>
          <path id="Path" fill="#F7C1D8" stroke="none" stroke-width="1" d="M 79.07 22.07 L 76.22 22.07 L 67.16 47.96 L 79.07 47.96 L 79.07 22.07 "/>
          <path id="Path" fill="#F7C1D8" stroke="none" stroke-width="1" d="M 54.62 22.07 L 54.62 47.96 L 58.28 47.96 L 67.31 22.07 L 54.62 22.07 "/>
          <path id="Path" fill="#FFEEF6" stroke="none" stroke-width="1" d="M 67.31 22.07 L 58.28 47.96 L 62.81 47.96 L 71.87 22.07 L 67.31 22.07 "/>
          <path id="Path" fill="#F7C1D8" stroke="none" stroke-width="1" d="M 43.07 22.07 L 39.35 22.07 C 37.55 30.08 34.55 43.07 33.35 47.93 L 36.77 47.93 L 45.2 23.93 C 44.997 22.897 44.121 22.132 43.07 22.07 Z "/>
          <path id="Path" fill="#F7C1D8" stroke="none" stroke-width="1" d="M 39.38 47.93 L 43.07 47.93 C 44.306 47.914 45.304 46.916 45.32 45.68 L 45.32 30.32 L 39.38 47.93 Z "/>
          <path id="Path" fill="#FFEEF6" stroke="none" stroke-width="1" d="M 45.32 24.35 C 45.335 24.19 45.335 24.03 45.32 23.87 L 36.89 47.87 L 39.41 47.87 L 45.41 30.26 L 45.32 24.35 Z "/>
          <path id="Path" fill="#F7C1D8" stroke="none" stroke-width="1" d="M 71.87 22.07 L 62.81 47.96 L 65.18 47.96 L 74.21 22.07 L 71.87 22.07 "/>
          <path id="Path" fill="#FFEEF6" stroke="none" stroke-width="1" d="M 74.21 22.07 L 65.18 47.96 L 67.16 47.96 L 76.22 22.07 L 74.21 22.07 "/>
          <path id="Path" fill="#43C3D7" stroke="#5E154D" stroke-width="1.08" stroke-linecap="round" stroke-linejoin="round" d="M 36.74 16.19 L 33.44 29.63 L 28.79 29.63 C 28.79 29.63 30.47 23.24 31.46 19.91 C 32.18 17.48 32.48 16.19 33.74 16.19 L 36.74 16.19 Z "/>
          <path id="Path" fill="#43C3D7" stroke="#5E154D" stroke-width="1.08" stroke-linecap="round" stroke-linejoin="round" d="M 36.71 16.19 L 40.7 16.19 L 39.92 19.67 L 35.87 19.67 L 36.71 16.19 "/>
          <path id="Rectangle" fill="none" stroke="#5E154D" stroke-width="1.08" stroke-linecap="round" stroke-linejoin="round" d="M 54.62 22.07 L 79.07 22.07 L 79.07 47.93 L 54.62 47.93 L 54.62 22.07 Z "/>
          <path id="Path" fill="none" stroke="#5E154D" stroke-width="1.44" stroke-linejoin="round" d="M 47.93 10.37 C 43.58 10.37 41.69 11.54 40.7 16.1 C 40.49 17.18 39.98 19.34 39.35 22.1 C 37.55 30.11 34.55 43.1 33.35 47.96 L 32.87 49.97 L 10.76 62.3 C 6.29 64.79 6.29 66.95 6.29 72.29 L 6.29 102.74 L 26.39 102.74 C 26.116 95.9 29.608 89.46 35.49 85.958 C 41.372 82.457 48.698 82.457 54.58 85.958 C 60.462 89.46 63.954 95.9 63.68 102.74 L 88.55 102.74 L 88.55 10.37 L 47.93 10.37 Z "/>
          <path id="Path" fill="none" stroke="#5E154D" stroke-width="1.44" stroke-linecap="round" stroke-linejoin="round" d="M 47.93 10.37 C 43.58 10.37 41.69 11.54 40.7 16.1 C 40.49 17.18 39.98 19.34 39.35 22.1 C 37.55 30.11 34.55 43.1 33.35 47.96 L 32.87 49.97 L 10.76 62.3 C 6.29 64.79 6.29 66.95 6.29 72.29 L 6.29 102.74 L 26.39 102.74 C 26.116 95.9 29.608 89.46 35.49 85.958 C 41.372 82.457 48.698 82.457 54.58 85.958 C 60.462 89.46 63.954 95.9 63.68 102.74 L 88.55 102.74 L 88.55 10.37 L 47.93 10.37 Z "/>
          <path id="Path" fill="none" stroke="#5E154D" stroke-width="1.08" stroke-linecap="round" stroke-linejoin="round" d="M 45.29 23.87 C 45.055 22.829 44.137 22.085 43.07 22.07 L 39.35 22.07 C 37.55 30.08 34.55 43.07 33.35 47.93 L 42.98 47.93 C 44.216 47.914 45.214 46.916 45.23 45.68 L 45.23 24.35 C 45.265 24.192 45.285 24.032 45.29 23.87 Z "/>
          <path id="Path" fill="#00828C" stroke="#5E154D" stroke-width="1.08" stroke-linecap="round" stroke-linejoin="round" d="M 4.07 94.67 L 4.07 97.43 L 17.3 97.43 L 17.9 94.67 L 4.07 94.67 "/>
          <path id="Path" fill="#00828C" stroke="#5E154D" stroke-width="1.08" stroke-linecap="round" stroke-linejoin="round" d="M 4.07 99.89 L 16.79 99.89 L 17.3 97.43 L 4.07 97.43 L 4.07 99.89 "/>
          <path id="Path" fill="#00828C" stroke="#5E154D" stroke-width="1.08" stroke-linecap="round" stroke-linejoin="round" d="M 18.41 92.18 L 4.07 92.18 L 4.07 94.67 L 17.9 94.67 L 18.41 92.18 "/>
          <path id="Path" fill="#FDBB38" stroke="none" stroke-width="1" d="M 6.29 76.94 L 4.07 76.94 C 2.33 76.94 1.58 79.52 1.25 82.07 L 6.29 82.07 L 6.29 76.94 Z "/>
          <path id="Path" fill="#FFFFFF" stroke="none" stroke-width="1" d="M 1.25 82.07 C 1.068 83.774 1.008 85.488 1.07 87.2 L 6.29 87.2 L 6.29 82.07 L 1.25 82.07 Z "/>
          <path id="Path" fill="none" stroke="#5E154D" stroke-width="1.44" stroke-linecap="round" stroke-linejoin="round" d="M 4.07 76.94 C 2.33 76.94 1.58 79.52 1.25 82.07 C 1.068 83.774 1.008 85.488 1.07 87.2 L 6.29 87.2 L 6.29 76.94 L 4.07 76.94 Z "/>
        </g>
        <g id="Tire-3">
          <path id="Path" fill="#F7C1D8" stroke="none" stroke-width="1" d="M 311.03 90.74 C 304.403 90.74 299.03 96.113 299.03 102.74 C 299.03 109.367 304.403 114.74 311.03 114.74 C 317.657 114.74 323.03 109.367 323.03 102.74 C 323.03 96.113 317.657 90.74 311.03 90.74 Z "/>
          <path id="Shape" fill="#5E154D" stroke="#5E154D" stroke-width="1.44" stroke-linecap="round" stroke-linejoin="round" d="M 311.03 87.83 C 302.746 87.83 296.03 94.546 296.03 102.83 C 296.03 111.114 302.746 117.83 311.03 117.83 C 319.314 117.83 326.03 111.114 326.03 102.83 C 326.03 94.546 319.314 87.83 311.03 87.83 Z M 311.03 110.21 C 307.991 110.222 305.245 108.399 304.077 105.594 C 302.908 102.789 303.548 99.556 305.697 97.407 C 307.846 95.258 311.079 94.618 313.884 95.787 C 316.689 96.955 318.512 99.701 318.5 102.74 C 318.524 104.737 317.748 106.66 316.344 108.08 C 314.941 109.501 313.027 110.3 311.03 110.3 L 311.03 110.21 Z "/>
          <path id="Oval" fill="#FFFFFF" stroke="#DA53D6" stroke-width="1.08" stroke-linecap="round" stroke-linejoin="round" d="M 311.03 98.9 C 312.089 98.9 313.049 99.33 313.745 100.025 C 314.44 100.721 314.87 101.681 314.87 102.74 C 314.87 103.799 314.44 104.759 313.745 105.455 C 313.049 106.15 312.089 106.58 311.03 106.58 C 309.971 106.58 309.011 106.15 308.315 105.455 C 307.62 104.759 307.19 103.799 307.19 102.74 C 307.19 101.681 307.62 100.721 308.315 100.025 C 309.011 99.33 309.971 98.9 311.03 98.9 Z "/>
        </g>
        <g id="Tire-4">
          <path id="Path" fill="#F7C1D8" stroke="none" stroke-width="1" d="M 354.17 90.74 C 347.543 90.74 342.17 96.113 342.17 102.74 C 342.17 109.367 347.543 114.74 354.17 114.74 C 360.797 114.74 366.17 109.367 366.17 102.74 C 366.17 96.113 360.797 90.74 354.17 90.74 Z "/>
          <path id="Shape" fill="#5E154D" stroke="#5E154D" stroke-width="1.44" stroke-linecap="round" stroke-linejoin="round" d="M 354.17 87.83 C 345.886 87.83 339.17 94.546 339.17 102.83 C 339.17 111.114 345.886 117.83 354.17 117.83 C 362.454 117.83 369.17 111.114 369.17 102.83 C 369.17 94.546 362.454 87.83 354.17 87.83 Z M 354.17 110.21 C 351.123 110.259 348.35 108.459 347.153 105.657 C 345.956 102.855 346.573 99.607 348.715 97.44 C 350.856 95.272 354.096 94.616 356.913 95.779 C 359.729 96.942 361.562 99.693 361.55 102.74 C 361.574 104.721 360.81 106.631 359.426 108.049 C 358.042 109.466 356.151 110.276 354.17 110.3 L 354.17 110.21 Z "/>
          <path id="Oval" fill="#FFFFFF" stroke="#DA53D6" stroke-width="1.08" stroke-linecap="round" stroke-linejoin="round" d="M 354.17 98.9 C 355.229 98.9 356.189 99.33 356.885 100.025 C 357.58 100.721 358.01 101.681 358.01 102.74 C 358.01 103.799 357.58 104.759 356.885 105.455 C 356.189 106.15 355.229 106.58 354.17 106.58 C 353.111 106.58 352.151 106.15 351.455 105.455 C 350.76 104.759 350.33 103.799 350.33 102.74 C 350.33 101.681 350.76 100.721 351.455 100.025 C 352.151 99.33 353.111 98.9 354.17 98.9 Z "/>
        </g>
      </g>
    </g>
  </g>
</svg>