<svg version="1.1" xmlns="http://www.w3.org/2000/svg" xmlns:xlink="http://www.w3.org/1999/xlink" width="272.93357" height="166.58519" viewBox="0,0,272.93357,166.58519"><g transform="translate(-213.6647,-83.17907)"><g data-paper-data="{&quot;isPaintingLayer&quot;:true}" stroke-miterlimit="10" stroke-dasharray="" stroke-dashoffset="0" style="mix-blend-mode: normal"><g fill-rule="evenodd"><path d="M246.04369,213.67755c0.8,0.4 2.5,1.3 0.1,4.7c-2.4,3.4 -9.3,4.1 -10.1,4.1c-3.1,0.1 -6.9,0.1 -11.1,-1.3c-12.2,-4 -12.3,-17.1 -8.4,-19.2c3.8,-2.1 5.5,6 11,10.9c2.4,2.2 5.3,3 7.7,3.5c3.4,0.6 9.9,-3.2 10.8,-2.7z" fill="#ffab19" stroke="#001026" stroke-width="1.2" stroke-linecap="round" stroke-linejoin="round"/><path d="M221.24369,205.57755c1.6,2.7 4.7,6.5 4.7,6.5c0,0 -3.7,-0.9 -5.8,0.8c-1.7,1.3 -1.3,3.5 -1.1,4.2c-1.3,-1.3 -2.9,-3.1 -3.9,-6.6c-1,-3.5 0,-7.7 2,-8.3c2,-0.4 2.5,1.1 4.1,3.4z" fill="#ffffff" stroke="none" stroke-width="1" stroke-linecap="butt" stroke-linejoin="miter"/></g><path d="M251.04369,224.07755c-1.8,1.2 -8,5.6 -15.9,8.1l-0.4,0.1c-0.4,0.1 -0.6,0.6 -0.4,1c1.7,2.4 4.8,7.2 -0.7,8.9c-5.3,1.7 -15.2,-12.4 -11,-16.1c1.9,-1.4 3.6,-0.7 4.5,-0.3c0.5,0.2 1,0.2 1.5,0.1c1.2,-0.4 3.4,-1.2 5.1,-2.1c4.3,-2.2 5.3,-3.1 7.3,-4.6c2,-1.5 6.6,-5.2 10.3,-2c3.2,2.7 1.4,5.7 -0.3,6.9z" fill="#ffab19" fill-rule="evenodd" stroke="#001026" stroke-width="1.2" stroke-linecap="round" stroke-linejoin="round"/><path d="M266.94369,203.27755c0.5,0.4 6.6,7.6 8.6,5.8c2.4,-2.1 5.7,-6.2 9.3,-2.9c3.6,3.3 -3.2,8.9 -6.1,10.4c-6.9,3.1 -12.5,-2.8 -13.7,-4.4c-1.2,-1.6 -3.3,-4.3 -3.3,-6.9c0.1,-2.8 3.5,-3.5 5.2,-2z" fill="#ffab19" fill-rule="evenodd" stroke="#001026" stroke-width="1.2" stroke-linecap="round" stroke-linejoin="round"/><g fill-rule="evenodd"><path d="M267.04369,226.57755c2.1,1.9 6.7,5.8 6.7,5.8c0,0 14.3,-2.5 14.3,4.7c0,4.3 -7.2,5.3 -16.9,4.4c-0.6,-0.1 -1.2,-0.3 -1.7,-0.7c-2.2,-1.9 -8.5,-7.5 -12.5,-11.4c-5.9,-5.8 -10.8,-9.6 -10.8,-9.6c-8.5,-8.3 -1.6,-11.8 1.1,-16.6c2.5,-4.1 3.6,-3.3 9.6,-2.1c3.4,0.5 5.4,0.8 7.6,0.7c3.3,-0.1 2.7,4.7 1.8,7.2c0,0 -1.4,3.7 -2.7,5.6c-1.6,2.3 -2.8,3.8 -4,4.7z" fill="#ffab19" stroke="#001026" stroke-width="1.2" stroke-linecap="round" stroke-linejoin="round"/><path d="M258.64369,219.17755c0,0 -1.5,-1.2 -3.1,-2.7c-2,-1.8 -4,-3.3 -2,-6.4c1.8,-2.4 3.5,-5.6 8,-2.7c4.3,2.7 2.4,5.2 2.4,5.2c-2.2,4.5 -5.3,6.6 -5.3,6.6z" fill="#ffffff" stroke="none" stroke-width="1" stroke-linecap="butt" stroke-linejoin="miter"/></g><path d="M243.54369,210.97755c2.2,2.8 5.6,6.3 1.3,9.2c-5.9,3.3 -10.8,-6.7 -11.8,-10.2c-0.9,-3.1 1.7,-5.1 3.9,-6.8c4.3,-3.1 7.9,-5.9 11.9,-4.4c5,1.8 1.4,5.8 -1.1,7.6c-1.5,1.1 -3,2.3 -4.1,3c-0.3,0.5 -0.4,1.1 -0.1,1.6z" fill="#ffab19" fill-rule="evenodd" stroke="#001026" stroke-width="1.2" stroke-linecap="round" stroke-linejoin="round"/><path d="M275.04369,143.57754c0.3,-0.2 0.8,-0.1 0.9,0.3l2.6,10.7c0,0 6.4,4.7 8.3,8c3.2,5.5 3.3,10 3.3,10c0,0 7.1,2.1 8.3,7.8c1.2,5.7 -3.2,16.5 -22,20.2c-18.8,3.7 -33.9,-1.4 -41,-12.8c-7.1,-11.4 4.1,-25 3.5,-24.2l-2.1,-17.9c-0.1,-0.4 0.4,-0.7 0.8,-0.5l12.1,7.9c0,0 4.5,-1.7 9.2,-1.9c2.8,-0.2 5.2,0 7.5,0.4z" fill="#ffab19" fill-rule="evenodd" stroke="#001026" stroke-width="1.2" stroke-linecap="butt" stroke-linejoin="miter"/><path d="M289.84369,172.97755c0,0 6.9,1.8 8.1,7.5c1.2,5.7 -3.6,16 -22.2,19.6c-24.2,5 -35.7,-9.4 -29,-20c6.7,-10.7 18.2,-1.6 26.6,-2.2c7.2,-0.5 8,-6.8 16.5,-4.9z" fill="#ffffff" fill-rule="evenodd" stroke="none" stroke-width="1" stroke-linecap="butt" stroke-linejoin="miter"/><path d="M268.04369,183.09219c10.5,-0.6 14.3,6.9 15.2,9.6c0.2,0.5 -0.2,1 -0.7,0.9c-1.5,-0.3 -4.7,-0.6 -10.1,-0.3c-6,0.4 -11.4,2 -13.3,2.7c-0.4,0.1 -0.8,-0.2 -0.8,-0.6c-0.3,-4.9 0.6,-11.3 9.7,-12.3z" data-paper-data="{&quot;index&quot;:null}" fill="#ffffff" fill-rule="evenodd" stroke="#001026" stroke-width="1.2" stroke-linecap="round" stroke-linejoin="round"/><path d="M308.24369,174.07755c-4.7,3.8 -11.9,3.9 -11.9,3.9" fill="none" fill-rule="evenodd" stroke="#001026" stroke-width="1.2" stroke-linecap="round" stroke-linejoin="round"/><path d="M306.94369,185.27755c-6.3,0.5 -10.2,-1.4 -10.2,-1.4" fill="none" fill-rule="evenodd" stroke="#001026" stroke-width="1.2" stroke-linecap="round" stroke-linejoin="round"/><path d="M272.94369,175.27755c2.1,0 4.3,0.2 4.4,0.9c0.1,1.4 -1.4,4.2 -3,4.3c-1.8,0.2 -6,-2.3 -6,-3.9c-0.1,-1.2 2.6,-1.3 4.6,-1.3z" fill="#001026" fill-rule="evenodd" stroke="#001026" stroke-width="1.2" stroke-linecap="round" stroke-linejoin="round"/><path d="M227.94369,173.77755c0,0 8.6,2.8 12.1,5.9" fill="none" fill-rule="evenodd" stroke="#001026" stroke-width="1.2" stroke-linecap="round" stroke-linejoin="round"/><path d="M240.34369,183.17755c-4.3,1.7 -11.7,0.6 -11.7,0.6" fill="none" fill-rule="evenodd" stroke="#001026" stroke-width="1.2" stroke-linecap="round" stroke-linejoin="round"/><g fill-rule="evenodd"><path d="M284.74369,163.57754c2.9,4.5 3,9.6 0.2,11.4c-2.8,1.8 -7.4,-0.3 -10.4,-4.8c-2.9,-4.5 -3,-9.6 -0.2,-11.4c2.8,-1.9 7.5,0.3 10.4,4.8z" fill="#ffffff" stroke="#001026" stroke-width="1.2" stroke-linecap="round" stroke-linejoin="round"/><path d="M284.34369,169.27755c0,1.1 -0.8,2 -1.8,2c-1,0 -1.8,-0.9 -1.8,-2c0,-1.1 0.8,-2 1.8,-2c1,0 1.8,0.9 1.8,2" fill="#001026" stroke="none" stroke-width="1" stroke-linecap="butt" stroke-linejoin="miter"/></g><g fill-rule="evenodd"><path d="M259.94369,166.37755c3,4.4 2.8,9.8 0.1,11.7c-3.3,1.9 -7.7,0.5 -10.7,-3.9c-3.1,-4.4 -3.3,-10.1 -0.2,-12.3c3.1,-2.3 7.8,0.1 10.8,4.5z" fill="#ffffff" stroke="#001026" stroke-width="1.2" stroke-linecap="round" stroke-linejoin="round"/><path d="M259.34369,172.17755c0,1.1 -0.8,2 -1.8,2c-1,0 -1.8,-0.9 -1.8,-2c0,-1.1 0.8,-2 1.8,-2c1,0.1 1.8,0.9 1.8,2" fill="#001026" stroke="none" stroke-width="1" stroke-linecap="butt" stroke-linejoin="miter"/></g><g fill-rule="nonzero" stroke="none" stroke-width="1" stroke-linecap="butt" stroke-linejoin="miter"><path d="M412.59828,138.07907c15.3,-5.9 24.3,5.1 27.4,11.8c3.1,6.7 -2.3,21.3 -3.2,29.9c-0.9,8.6 1,12.5 2.3,24.3c1.3,11.8 -3.6,38.6 -5.3,39.4c-4.2,1.9 -22.4,0 -23.8,-1.5c-1.4,-1.5 3.9,-3.3 5.5,-5.7c1.7,-2.4 -0.1,-11.3 -7.1,-23.6c-14,-24.7 -11.8,-46.1 -11.8,-46.1c-0.3,-5.8 0.7,-22.6 16,-28.5z" fill="#856045"/><path d="M417.49828,243.37907c0,0 0,-0.3 0.1,-0.8c0.1,-0.4 0.5,-1 0.9,-1.5c0.4,-0.5 0.9,-0.8 1.4,-1c0.4,-0.2 0.7,-0.3 0.7,-0.3c0,0 0,0.1 -0.1,0.2c-0.1,0.1 -0.2,0.2 -0.4,0.4c-0.3,0.3 -0.7,0.7 -1.1,1.2c-0.4,0.4 -0.8,0.9 -1,1.2c-0.3,0.4 -0.5,0.6 -0.5,0.6z" fill="#59402f"/><path d="M412.29828,242.67907c0,0 0.1,-0.4 0.3,-0.9c0.2,-0.5 0.7,-1.1 1.2,-1.6c0.3,-0.2 0.6,-0.5 0.9,-0.6c0.3,-0.2 0.6,-0.3 0.8,-0.4c0.3,-0.1 0.5,-0.1 0.6,-0.2c0.2,0 0.2,0 0.2,0c0,0 -0.1,0.1 -0.2,0.1c-0.1,0.1 -0.3,0.2 -0.5,0.4c-0.4,0.3 -0.9,0.7 -1.4,1.2c-0.5,0.5 -1,0.9 -1.3,1.3c-0.3,0.4 -0.6,0.7 -0.6,0.7z" fill="#59402f"/><path d="M418.19828,244.77907c0.1,-0.6 1.2,-3 2.2,-2.8c1,0.2 0.2,1.1 -0.4,1.7c-0.5,0.6 -1.8,1.4 -1.8,1.1z" fill="#665a52"/><path d="M413.19828,243.67907c0.1,-0.6 1.2,-3 2.2,-2.8c1,0.2 0.2,1.1 -0.4,1.7c-0.5,0.6 -1.8,1.4 -1.8,1.1z" fill="#665a52"/><path d="M409.99828,243.07907c0.1,-0.6 1.2,-3 2.2,-2.8c1,0.2 0.2,1.1 -0.4,1.7c-0.4,0.5 -1.8,1.4 -1.8,1.1z" fill="#665a52"/><g><path d="M436.29828,182.57907c0,0 5.3,10.8 7.5,11c0,0 -2.4,1.2 -3.7,-0.5c0,0 3.7,2.5 3.8,6.8l-2.5,-1.4c0,0 2.5,6.6 1.3,10.4l-2,-3.4c0,0 1.8,6.5 -2.8,9" fill="#856045"/><path d="M443.59828,193.47907c0,0 -0.2,0 -0.5,-0.2c-0.3,-0.2 -0.7,-0.4 -1,-0.8c-0.8,-0.7 -1.7,-1.9 -2.4,-3.1c-0.4,-0.6 -0.7,-1.2 -1,-1.8c-0.3,-0.6 -0.6,-1.2 -0.8,-1.6c-0.4,-1 -0.7,-1.6 -0.7,-1.6c0,0 0.4,0.6 1,1.5c0.6,0.9 1.3,2.1 2,3.3c0.7,1.2 1.5,2.4 2.2,3.2c0.3,0.4 0.6,0.7 0.8,0.9c0.2,0.2 0.4,0.2 0.4,0.2z" fill="#59402f"/><path d="M443.69828,199.77907c0,0 -0.1,-0.4 -0.3,-1c-0.2,-0.6 -0.4,-1.4 -0.8,-2.1c-0.2,-0.4 -0.3,-0.7 -0.5,-1c-0.2,-0.3 -0.4,-0.6 -0.6,-0.9c-0.2,-0.2 -0.3,-0.5 -0.5,-0.6c-0.1,-0.1 -0.2,-0.2 -0.2,-0.2c0,0 0.1,0 0.3,0.1c0.2,0.1 0.4,0.2 0.7,0.4c0.3,0.2 0.5,0.5 0.8,0.8c0.3,0.3 0.5,0.7 0.7,1.1c0.2,0.4 0.3,0.8 0.4,1.2c0.1,0.4 0.1,0.8 0.2,1.1c-0.1,0.6 -0.2,1.1 -0.2,1.1z" fill="#59402f"/><path d="M442.49828,208.37907c0,0 0.2,-0.6 0.2,-1.6c0,-0.5 0,-1 0,-1.6c0,-0.6 -0.1,-1.2 -0.2,-1.8c-0.1,-0.6 -0.2,-1.2 -0.4,-1.8c-0.1,-0.6 -0.3,-1.1 -0.4,-1.6c-0.1,-0.5 -0.2,-0.9 -0.3,-1.1c-0.1,-0.3 -0.1,-0.4 -0.1,-0.4c0,0 0.1,0.1 0.2,0.4c0.1,0.3 0.3,0.6 0.5,1.1c0.2,0.4 0.4,1 0.6,1.6c0.2,0.6 0.3,1.2 0.4,1.9c0.1,0.6 0.2,1.3 0.2,1.9c0,0.6 -0.1,1.2 -0.2,1.7c-0.1,0.5 -0.3,0.9 -0.4,1.1c0,0.1 -0.1,0.2 -0.1,0.2z" fill="#59402f"/><path d="M439.09828,213.47907c0,0 0.1,-0.1 0.2,-0.3c0.1,-0.2 0.3,-0.5 0.4,-0.8c0.3,-0.7 0.5,-1.7 0.6,-2.7c0.1,-1 0.1,-2 0.1,-2.8c0,-0.8 0.1,-1.3 0.1,-1.3c0,0 0.2,0.5 0.3,1.3c0.1,0.4 0.1,0.8 0.2,1.3c0,0.2 0,0.5 0,0.8c0,0.3 0,0.5 0,0.8c-0.1,0.5 -0.1,1.1 -0.3,1.5c-0.1,0.5 -0.4,0.9 -0.6,1.3c-0.2,0.3 -0.5,0.6 -0.7,0.7c-0.1,0.2 -0.3,0.2 -0.3,0.2z" fill="#59402f"/></g><path d="M439.49828,208.37907c0,0 -0.1,2.4 -0.3,6c-0.1,1.8 -0.3,3.9 -0.5,6.2c-0.2,2.2 -0.5,4.6 -0.8,7c-0.3,2.4 -0.7,4.8 -1.1,7c-0.4,2.2 -0.9,4.3 -1.5,6c-0.3,0.9 -0.6,1.7 -1,2.3c-0.1,0.2 -0.2,0.3 -0.3,0.5l-0.2,0.2c-0.1,0.1 -0.1,0.1 -0.2,0.1c-0.3,0.1 -0.6,0.2 -0.9,0.2c-1,0.2 -1.6,0.2 -1.6,0.2c0,0 0.6,-0.1 1.6,-0.3c0.3,-0.1 0.5,-0.1 0.8,-0.3c0.1,0 0.1,-0.1 0.2,-0.1l0.1,-0.2c0.1,-0.1 0.2,-0.3 0.3,-0.5c0.3,-0.6 0.6,-1.4 0.8,-2.3c0.5,-1.7 0.9,-3.8 1.3,-6c0.4,-2.2 0.7,-4.6 1,-7c0.3,-2.4 0.6,-4.8 0.9,-7c0.3,-2.2 0.5,-4.3 0.7,-6.1c0.5,-3.5 0.7,-5.9 0.7,-5.9z" fill="#59402f"/><path d="M395.99828,176.87907c0,0 0.8,4.1 2.3,10.2c0.8,3.1 1.7,6.6 2.9,10.3c0.6,1.8 1.3,3.8 2.2,5.6c0.5,0.9 1,1.8 1.6,2.7c0.5,0.9 1.1,1.8 1.6,2.7c2,3.7 3.8,7.5 5.4,11.1c0.8,1.8 1.5,3.6 2.2,5.3c0.6,1.7 1.2,3.3 1.6,4.8c0.2,0.8 0.3,1.5 0.4,2.2c0.1,0.7 0.2,1.4 0.2,2c0,0.6 -0.1,1.3 -0.3,1.8c-0.2,0.5 -0.6,0.9 -0.9,1.2c-0.7,0.6 -1.3,1 -1.7,1.3c-0.4,0.3 -0.6,0.4 -0.6,0.4c0,0 0.2,-0.1 0.6,-0.4c0.4,-0.3 1,-0.7 1.6,-1.3c0.3,-0.3 0.6,-0.7 0.8,-1.2c0.2,-0.5 0.3,-1.1 0.3,-1.7c0,-0.6 -0.1,-1.3 -0.3,-2c-0.1,-0.7 -0.2,-1.4 -0.5,-2.2c-0.9,-3 -2.3,-6.4 -3.9,-10c-1.6,-3.6 -3.4,-7.4 -5.5,-11c-0.5,-0.9 -1,-1.8 -1.6,-2.7c-0.5,-0.9 -1.1,-1.8 -1.6,-2.7c-0.9,-1.9 -1.6,-3.8 -2.2,-5.7c-0.6,-1.9 -1.1,-3.7 -1.6,-5.5c-0.5,-1.8 -0.9,-3.4 -1.2,-5c-0.7,-3.1 -1.2,-5.7 -1.5,-7.5c-0.1,-1.7 -0.3,-2.7 -0.3,-2.7z" fill="#59402f"/></g><g fill-rule="nonzero" stroke="none" stroke-width="1" stroke-linecap="butt" stroke-linejoin="miter"><g fill="#856045"><path d="M375.69828,180.77907c1,21.5 -13.4,59.4 -16.1,61.1c-2.7,1.7 -25.5,3 -24.8,0c0.6,-3 4.7,-5 6,-7.7c1.3,-2.7 2,-25.2 1.3,-31.2c-0.7,-6 -6.4,-11.4 -9.4,-32.5c-3,-21.1 38.2,-33.2 43,10.3z"/><path d="M368.79828,161.37907c0,0 6.6,10 8.9,10c0,0 -2.2,1.5 -3.8,0c0,0 4,2 4.6,6.2l-2.7,-1.1c0,0 3.3,6.2 2.7,10.2l-2.4,-3.1c0,0 2.7,6.2 -1.5,9.3"/></g><path d="M377.49828,171.27907c0,0 -0.2,0 -0.5,-0.1c-0.3,-0.1 -0.7,-0.3 -1.1,-0.6c-0.9,-0.6 -1.9,-1.6 -2.8,-2.7c-0.5,-0.5 -0.9,-1.1 -1.3,-1.7c-0.4,-0.5 -0.7,-1.1 -1,-1.5c-0.5,-0.9 -0.9,-1.5 -0.9,-1.5c0,0 0.5,0.5 1.2,1.3c0.7,0.8 1.6,1.9 2.5,3c0.9,1.1 1.8,2.1 2.6,2.9c0.4,0.4 0.7,0.7 1,0.8c0.1,0.1 0.3,0.1 0.3,0.1z" fill="#59402f"/><path d="M378.39828,177.37907c0,0 -0.2,-0.4 -0.4,-1c-0.3,-0.6 -0.6,-1.3 -1,-2c-0.2,-0.3 -0.4,-0.7 -0.7,-1c-0.2,-0.3 -0.5,-0.6 -0.7,-0.8c-0.2,-0.2 -0.4,-0.4 -0.5,-0.5c-0.1,-0.1 -0.2,-0.2 -0.2,-0.2c0,0 0.1,0 0.3,0.1c0.2,0.1 0.4,0.2 0.7,0.3c0.3,0.2 0.6,0.4 0.9,0.7c0.3,0.3 0.6,0.6 0.8,1c0.2,0.4 0.4,0.8 0.6,1.1c0.1,0.4 0.2,0.7 0.3,1.1c-0.1,0.8 -0.1,1.2 -0.1,1.2z" fill="#59402f"/><path d="M378.39828,186.17907c0,0 0.1,-0.6 0,-1.6c0,-0.5 -0.1,-1 -0.3,-1.6c-0.1,-0.6 -0.3,-1.2 -0.5,-1.8c-0.2,-0.6 -0.4,-1.2 -0.6,-1.8c-0.2,-0.6 -0.4,-1.1 -0.6,-1.5c-0.2,-0.4 -0.3,-0.8 -0.4,-1.1c-0.1,-0.3 -0.1,-0.4 -0.1,-0.4c0,0 0.1,0.1 0.3,0.4c0.2,0.2 0.4,0.6 0.6,1c0.2,0.4 0.5,0.9 0.8,1.5c0.3,0.5 0.5,1.2 0.7,1.8c0.2,0.6 0.3,1.3 0.4,1.9c0.1,0.6 0.1,1.2 0.1,1.7c0,0.5 -0.1,0.9 -0.2,1.2c-0.1,0.1 -0.2,0.3 -0.2,0.3z" fill="#59402f"/><path d="M357.79828,242.47907c0,0 0.2,0 0.6,-0.1c0.4,-0.1 1.1,-0.3 1.5,-1c0.5,-0.6 1,-1.5 1.4,-2.5c0.5,-1 0.8,-2.2 1.3,-3.5c0.9,-2.6 2.1,-5.6 3.2,-8.9c1.2,-3.2 2.4,-6.7 3.5,-10.2c0.6,-1.7 1.1,-3.5 1.6,-5.2c0.2,-0.9 0.5,-1.7 0.7,-2.6c0.2,-0.9 0.4,-1.7 0.6,-2.5c0.4,-1.7 0.7,-3.3 0.9,-4.9c0.2,-1.6 0.5,-3 0.7,-4.4c0.4,-2.7 0.7,-5 0.9,-6.6c0.2,-1.6 0.2,-2.5 0.2,-2.5c0,0 0,0.9 -0.1,2.5c-0.1,1.6 -0.3,3.9 -0.7,6.6c-0.2,1.4 -0.4,2.8 -0.6,4.4c-0.2,1.6 -0.5,3.2 -0.8,4.9c-0.2,0.8 -0.4,1.7 -0.6,2.6c-0.2,0.9 -0.4,1.7 -0.7,2.6c-0.5,1.8 -1,3.5 -1.6,5.3c-1.1,3.5 -2.4,7 -3.6,10.2c-1.3,3.2 -2.4,6.2 -3.4,8.8c-0.5,1.3 -0.9,2.5 -1.4,3.5c-0.5,1 -1,1.8 -1.6,2.5c-0.5,0.7 -1.2,0.8 -1.6,1c-0.1,0 -0.4,0 -0.4,0z" fill="#59402f"/><path d="M374.79828,192.57907c0,0 0.5,-0.4 0.9,-1.2c0.2,-0.4 0.4,-0.8 0.5,-1.4c0.1,-0.5 0.2,-1.1 0.2,-1.7c0,-0.3 0,-0.6 0,-0.9c0,-0.3 0,-0.6 0,-0.8c0,-0.5 -0.1,-1 -0.1,-1.5c0,-0.4 -0.1,-0.8 -0.1,-1.1c0,-0.3 0,-0.4 0,-0.4c0,0 0.1,0.1 0.2,0.4c0.1,0.2 0.2,0.6 0.4,1c0.1,0.4 0.3,0.9 0.3,1.5c0,0.3 0.1,0.6 0.1,0.9c0,0.3 0,0.6 0,0.9c0,0.6 -0.1,1.2 -0.3,1.8c-0.1,0.3 -0.2,0.5 -0.3,0.8c-0.1,0.2 -0.3,0.5 -0.4,0.6c-0.3,0.4 -0.6,0.6 -0.8,0.8c-0.4,0.2 -0.6,0.3 -0.6,0.3z" fill="#59402f"/><path d="M341.49828,243.47907c0,0 0,-0.3 0,-0.8c0.1,-0.5 0.3,-1.1 0.7,-1.6c0.4,-0.5 0.8,-1 1.2,-1.2c0.4,-0.3 0.7,-0.4 0.7,-0.4c0,0 0,0.1 -0.1,0.2c-0.1,0.1 -0.2,0.3 -0.3,0.4c-0.3,0.4 -0.6,0.8 -0.9,1.3c-0.3,0.5 -0.6,1 -0.9,1.3c-0.2,0.5 -0.4,0.8 -0.4,0.8z" fill="#59402f"/><path d="M336.29828,242.97907c0,0 0,-0.4 0.2,-0.9c0.2,-0.5 0.5,-1.2 1,-1.7c0.2,-0.3 0.5,-0.5 0.8,-0.7c0.3,-0.2 0.5,-0.4 0.8,-0.5c0.2,-0.1 0.5,-0.2 0.6,-0.2c0.2,0 0.2,-0.1 0.2,-0.1c0,0 -0.1,0.1 -0.2,0.2c-0.1,0.1 -0.3,0.3 -0.5,0.4c-0.4,0.4 -0.8,0.8 -1.3,1.4c-0.4,0.5 -0.8,1.1 -1.1,1.5c-0.3,0.3 -0.5,0.6 -0.5,0.6z" fill="#59402f"/><path d="M337.79828,237.67907c0,0 0.2,-0.1 0.5,-0.4c0.3,-0.3 0.8,-0.7 1.3,-1.3c0.5,-0.6 1,-1.4 1.3,-2.5c0.4,-1 0.5,-2.2 0.5,-3.6c0.1,-2.7 0.4,-5.9 0.6,-9.3c0.2,-3.4 0.4,-7 0.3,-10.6c-0.1,-1.8 -0.1,-3.6 -0.4,-5.3c-0.2,-1.7 -0.7,-3.4 -1.2,-5c-1,-3.2 -2.2,-6.2 -3.1,-8.7c-1,-2.5 -1.6,-4.7 -2,-6.3c-0.2,-0.8 -0.3,-1.4 -0.4,-1.8c-0.1,-0.4 -0.1,-0.6 -0.1,-0.6c0,0 0.1,0.2 0.2,0.6c0.1,0.4 0.3,1 0.5,1.8c0.2,0.8 0.5,1.7 0.9,2.7c0.4,1 0.8,2.2 1.4,3.4c1,2.5 2.3,5.4 3.3,8.7c0.5,1.6 1,3.3 1.2,5.1c0.3,1.8 0.4,3.6 0.4,5.4c0.1,3.6 -0.1,7.3 -0.4,10.7c-0.2,3.4 -0.6,6.5 -0.8,9.2c0,0.7 -0.1,1.3 -0.2,2c-0.1,0.6 -0.3,1.2 -0.5,1.7c-0.4,1 -0.9,1.9 -1.5,2.5c-0.5,0.6 -1,1 -1.4,1.2c-0.2,0.3 -0.4,0.4 -0.4,0.4z" fill="#59402f"/><path d="M342.39828,244.67907c0,-0.6 0.8,-3.1 1.9,-3.1c1.1,0 0.4,1.1 -0.1,1.7c-0.6,0.7 -1.8,1.8 -1.8,1.4z" fill="#665a52"/><path d="M337.29828,244.27907c0,-0.6 0.8,-3.1 1.9,-3.1c1.1,0 0.4,1.1 -0.1,1.7c-0.6,0.7 -1.8,1.8 -1.8,1.4z" fill="#665a52"/><path d="M334.09828,243.47907c0,-0.6 0.8,-3.1 1.9,-3.1c1.1,0 0.4,1.1 -0.1,1.7c-0.6,0.7 -1.8,1.7 -1.8,1.4z" fill="#665a52"/></g><g fill-rule="nonzero" stroke="none" stroke-width="1" stroke-linecap="butt" stroke-linejoin="miter"><path d="M356.49828,186.97907c-3,2 -9.8,-3.8 -9.8,-3.8l-1.2,2c0.1,-3.4 -7.3,-8 -7.3,-8l0.8,2.6c-6.5,-2.6 -7.5,-11.4 -7.5,-11.4l-0.2,2.8c-3.4,-3.2 -3.4,-12.9 -3.4,-12.9" fill="#8d674a"/><g><path d="M352.09828,105.07907c18,-5.6 41.7,3.8 53,8c16.4,6.1 36.2,-9.9 63.1,12.1c26.9,22 21.5,54.9 1.4,71c-22.5,18 -102,18.1 -116.1,-10.3c0,0 -26.3,-10.2 -27.5,-37.5" fill="#8d674a"/><path d="M327.89828,159.17907c0,0 0.1,0.8 0.3,1.9c0.2,1.1 0.4,2.6 0.7,4.1c0.1,0.7 0.3,1.5 0.5,2.2c0.1,0.3 0.2,0.7 0.3,1c0.1,0.3 0.2,0.6 0.3,0.9c0.1,0.3 0.2,0.5 0.3,0.7c0.1,0.2 0.2,0.4 0.3,0.5c0.2,0.3 0.3,0.4 0.3,0.4c0,0 -0.2,-0.1 -0.4,-0.3c-0.1,-0.1 -0.3,-0.3 -0.4,-0.5c-0.2,-0.2 -0.3,-0.4 -0.5,-0.7c-0.2,-0.2 -0.3,-0.5 -0.4,-0.8c-0.1,-0.3 -0.3,-0.6 -0.4,-1c-0.2,-0.7 -0.4,-1.4 -0.6,-2.2c-0.3,-1.5 -0.4,-3.1 -0.5,-4.2c0.1,-1.2 0.2,-2 0.2,-2z" fill="#59402f"/><path d="M331.49827,168.27907c0,0 0.2,0.9 0.6,2.1c0.2,0.6 0.5,1.4 0.8,2.1c0.1,0.4 0.4,0.8 0.5,1.2c0.2,0.4 0.4,0.8 0.6,1.1c0.2,0.4 0.4,0.8 0.7,1.1c0.3,0.3 0.5,0.7 0.8,1c0.3,0.3 0.5,0.6 0.8,0.9c0.3,0.2 0.5,0.5 0.8,0.7c0.3,0.2 0.5,0.4 0.7,0.6c0.2,0.1 0.4,0.3 0.6,0.4c0.3,0.2 0.5,0.3 0.5,0.3c0,0 -0.2,-0.1 -0.6,-0.2c-0.2,-0.1 -0.4,-0.2 -0.7,-0.3c-0.2,-0.1 -0.5,-0.3 -0.8,-0.5c-0.3,-0.2 -0.6,-0.4 -0.9,-0.6c-0.3,-0.2 -0.6,-0.5 -0.9,-0.8c-0.3,-0.3 -0.6,-0.7 -0.9,-1c-0.3,-0.4 -0.5,-0.8 -0.8,-1.1c-0.4,-0.8 -0.8,-1.6 -1.1,-2.4c-0.3,-0.8 -0.5,-1.6 -0.6,-2.2c-0.1,-1.5 -0.1,-2.4 -0.1,-2.4z" fill="#59402f"/><path d="M338.29828,177.27907c0,0 0.7,0.2 1.6,0.8c0.5,0.3 1,0.6 1.5,1c0.5,0.4 1.1,0.8 1.6,1.3c0.5,0.5 1,1 1.4,1.6c0.4,0.5 0.7,1.1 0.9,1.6c0.1,0.3 0.2,0.5 0.2,0.7c0.1,0.2 0.1,0.4 0.1,0.5c0.1,0.3 0.1,0.5 0.1,0.5c0,0 -0.1,-0.2 -0.2,-0.4c-0.1,-0.1 -0.1,-0.3 -0.2,-0.5c-0.1,-0.2 -0.2,-0.4 -0.3,-0.6c-0.1,-0.2 -0.3,-0.4 -0.5,-0.7c-0.2,-0.2 -0.4,-0.5 -0.6,-0.7c-0.4,-0.5 -0.9,-1 -1.4,-1.5c-0.5,-0.5 -1,-0.9 -1.5,-1.4c-0.5,-0.4 -1,-0.8 -1.4,-1.1c-0.8,-0.7 -1.3,-1.1 -1.3,-1.1z" fill="#59402f"/><path d="M346.79828,183.27907c0,0 0.6,0.4 1.5,1c0.5,0.3 1,0.6 1.5,0.9c0.6,0.3 1.2,0.7 1.8,1c0.6,0.3 1.3,0.6 1.9,0.8c0.3,0.1 0.6,0.2 0.9,0.3c0.3,0.1 0.6,0.1 0.8,0.2c0.3,0 0.5,0.1 0.7,0.1c0.2,0 0.4,0 0.6,0c0.3,0 0.5,0 0.5,0c0,0 -0.2,0 -0.5,0.1c-0.2,0 -0.3,0.1 -0.6,0.1c-0.2,0 -0.5,0 -0.7,0c-0.5,0 -1.2,-0.1 -1.8,-0.3c-0.7,-0.2 -1.3,-0.5 -2,-0.8c-0.6,-0.3 -1.3,-0.7 -1.8,-1.1c-0.6,-0.4 -1,-0.8 -1.5,-1.1c-0.8,-0.7 -1.3,-1.2 -1.3,-1.2z" fill="#59402f"/><path d="M371.79828,103.77907c0,0 3.1,0.2 7.7,1.1c2.3,0.4 5,1 7.8,1.8c1.4,0.4 2.9,0.8 4.3,1.2c1.5,0.4 3,0.9 4.4,1.4c2.9,1.1 5.8,2.4 8.5,3.3c1.4,0.5 2.7,0.9 4,1.2c1.3,0.3 2.5,0.5 3.7,0.6c1.2,0.1 2.2,0.2 3.2,0.2c0.9,0 1.8,0 2.4,0c1.4,-0.1 2.1,-0.1 2.1,-0.1c0,0 -0.8,0.1 -2.1,0.2c-0.7,0.1 -1.5,0.1 -2.5,0.1c-0.9,0 -2,0 -3.2,-0.1c-1.2,-0.1 -2.4,-0.3 -3.7,-0.5c-1.3,-0.3 -2.7,-0.6 -4.1,-1.1c-2.8,-0.9 -5.6,-2.2 -8.5,-3.2c-1.4,-0.5 -2.9,-0.9 -4.4,-1.4c-1.5,-0.4 -2.9,-0.8 -4.3,-1.2c-2.8,-0.8 -5.4,-1.4 -7.7,-1.9c-2.3,-0.5 -4.2,-0.9 -5.5,-1.2c-1.4,-0.2 -2.1,-0.4 -2.1,-0.4z" fill="#59402f"/><path d="M445.69828,113.87907c0,0 1.2,0.3 3.2,0.9c2,0.6 4.9,1.6 8.2,3.2c3.3,1.6 7.1,3.6 10.7,6.4c3.7,2.8 7.2,6.2 10,10.3c1.4,2 2.6,4.2 3.6,6.4c1,2.2 2,4.4 2.8,6.5c0.8,2.2 1.4,4.3 1.8,6.4c0.4,2.1 0.6,4.1 0.6,5.9c0,3.7 -0.6,6.7 -1,8.8c-0.4,2.1 -0.6,3.3 -0.6,3.3c0,0 0.2,-1.2 0.5,-3.3c0.3,-2.1 0.8,-5.1 0.7,-8.8c-0.1,-1.8 -0.3,-3.8 -0.7,-5.8c-0.4,-2 -1.1,-4.1 -1.9,-6.3c-0.8,-2.1 -1.7,-4.3 -2.8,-6.4c-1,-2.2 -2.2,-4.3 -3.6,-6.3c-2.7,-4 -6.2,-7.4 -9.8,-10.2c-3.6,-2.8 -7.3,-4.9 -10.5,-6.5c-3.3,-1.6 -6.1,-2.7 -8.1,-3.4c-1.9,-0.8 -3.1,-1.1 -3.1,-1.1z" fill="#59402f"/><path d="M358.89828,193.17907c0,0 1.3,1.1 3.9,2.7c2.6,1.6 6.4,3.7 11.2,5.6c4.8,2 10.7,3.7 17.1,4.9c6.4,1.3 13.3,1.9 20.3,1.9c3.5,0 6.9,-0.1 10.4,-0.3c3.4,-0.2 6.8,-0.5 10,-0.8c1.6,-0.2 3.2,-0.4 4.8,-0.5c1.6,-0.2 3.1,-0.4 4.6,-0.6c3,-0.4 5.7,-1 8.3,-1.5c2.5,-0.6 4.9,-1.2 6.9,-1.8c1,-0.3 1.9,-0.6 2.8,-0.9c0.8,-0.3 1.6,-0.6 2.3,-0.9c1.4,-0.6 2.4,-1.2 3.1,-1.6c0.7,-0.4 1,-0.7 1,-0.7c0,0 -0.3,0.3 -1,0.8c-0.7,0.4 -1.7,1.1 -3.1,1.7c-0.7,0.3 -1.5,0.6 -2.3,1c-0.9,0.3 -1.8,0.7 -2.8,1c-2,0.7 -4.3,1.3 -6.9,1.9c-2.5,0.6 -5.3,1.1 -8.3,1.6c-1.5,0.2 -3,0.5 -4.6,0.7c-1.6,0.2 -3.2,0.4 -4.8,0.6c-3.3,0.3 -6.6,0.6 -10,0.8c-3.4,0.3 -6.9,0.4 -10.4,0.4c-7,-0.1 -14,-0.7 -20.4,-2c-6.4,-1.3 -12.3,-3.1 -17.1,-5.2c-4.8,-2 -8.6,-4.2 -11.2,-5.9c-2.5,-1.7 -3.8,-2.9 -3.8,-2.9z" fill="#59402f"/></g></g><g fill-rule="nonzero" stroke="none" stroke-width="1" stroke-linecap="butt" stroke-linejoin="miter"><g fill="#8d674a"><path d="M407.29828,185.77907c1,21.5 -13.4,59.4 -16.1,61.1c-2.7,1.7 -25.4,3 -24.8,0c0.6,-3 4.7,-5 6,-7.7c1.3,-2.7 2,-25.2 1.3,-31.2c-0.7,-6 -6.4,-11.4 -9.4,-32.5c-3,-21.1 38.3,-33.2 43,10.3z"/><path d="M400.49828,166.37907c0,0 6.6,10 8.9,10c0,0 -2.2,1.5 -3.8,0c0,0 4,2 4.6,6.2l-2.7,-1.1c0,0 3.3,6.2 2.7,10.2l-2.4,-3.1c0,0 2.7,6.2 -1.5,9.3"/></g><path d="M409.09828,176.27907c0,0 -0.2,0 -0.5,-0.1c-0.3,-0.1 -0.7,-0.3 -1.1,-0.6c-0.9,-0.6 -1.9,-1.6 -2.8,-2.7c-0.5,-0.5 -0.9,-1.1 -1.3,-1.7c-0.4,-0.5 -0.7,-1.1 -1,-1.5c-0.5,-0.9 -0.9,-1.5 -0.9,-1.5c0,0 0.5,0.5 1.2,1.3c0.7,0.8 1.6,1.9 2.5,3c0.9,1.1 1.8,2.1 2.6,2.9c0.4,0.4 0.7,0.7 1,0.8c0.2,0.1 0.3,0.1 0.3,0.1z" fill="#59402f"/><path d="M409.99828,182.37907c0,0 -0.2,-0.4 -0.4,-1c-0.3,-0.6 -0.6,-1.3 -1,-2c-0.2,-0.3 -0.4,-0.7 -0.7,-1c-0.2,-0.3 -0.5,-0.6 -0.7,-0.8c-0.2,-0.2 -0.4,-0.4 -0.5,-0.5c-0.1,-0.1 -0.2,-0.2 -0.2,-0.2c0,0 0.1,0 0.3,0.1c0.2,0.1 0.4,0.2 0.7,0.3c0.3,0.2 0.6,0.4 0.9,0.7c0.3,0.3 0.6,0.6 0.8,1c0.2,0.4 0.4,0.8 0.6,1.1c0.1,0.4 0.2,0.7 0.3,1.1c0,0.8 -0.1,1.2 -0.1,1.2z" fill="#59402f"/><path d="M409.99828,191.17907c0,0 0.1,-0.6 0,-1.6c0,-0.5 -0.1,-1 -0.3,-1.6c-0.1,-0.6 -0.3,-1.2 -0.5,-1.8c-0.2,-0.6 -0.4,-1.2 -0.6,-1.8c-0.2,-0.6 -0.4,-1.1 -0.6,-1.5c-0.2,-0.4 -0.3,-0.8 -0.4,-1.1c-0.1,-0.3 -0.1,-0.4 -0.1,-0.4c0,0 0.1,0.1 0.3,0.4c0.2,0.2 0.4,0.6 0.6,1c0.2,0.4 0.5,0.9 0.8,1.5c0.3,0.5 0.5,1.2 0.7,1.8c0.2,0.6 0.3,1.3 0.4,1.9c0.1,0.6 0.1,1.2 0.1,1.7c0,0.5 -0.1,0.9 -0.2,1.2c-0.1,0.1 -0.2,0.3 -0.2,0.3z" fill="#59402f"/><path d="M389.39828,247.47907c0,0 0.2,0 0.7,-0.1c0.4,-0.1 1.1,-0.3 1.5,-1c0.5,-0.6 1,-1.5 1.5,-2.5c0.5,-1 0.9,-2.2 1.3,-3.5c1,-2.6 2.1,-5.6 3.3,-8.9c1.2,-3.2 2.4,-6.7 3.5,-10.2c0.6,-1.8 1.1,-3.5 1.6,-5.3c0.2,-0.9 0.5,-1.7 0.7,-2.6c0.2,-0.9 0.4,-1.7 0.6,-2.6c0.2,-0.8 0.3,-1.7 0.5,-2.5c0.2,-0.8 0.3,-1.6 0.4,-2.4c0.2,-1.6 0.5,-3 0.7,-4.4c0.4,-2.7 0.7,-5 0.9,-6.6c0.2,-1.6 0.2,-2.5 0.2,-2.5c0,0 0,0.9 -0.1,2.5c-0.1,1.6 -0.3,3.9 -0.7,6.7c-0.2,1.4 -0.4,2.9 -0.6,4.4c-0.2,1.6 -0.5,3.2 -0.8,4.9c-0.2,0.9 -0.4,1.7 -0.6,2.6c-0.2,0.9 -0.4,1.7 -0.7,2.6c-0.5,1.8 -1,3.5 -1.5,5.3c-1.1,3.5 -2.4,7 -3.6,10.2c-1.2,3.2 -2.4,6.2 -3.4,8.8c-0.5,1.3 -0.9,2.5 -1.5,3.5c-0.5,1 -1.1,1.8 -1.6,2.4c-0.5,0.7 -1.1,0.9 -1.6,1c-0.5,0.3 -0.7,0.2 -0.7,0.2z" fill="#59402f"/><path d="M406.49828,197.57907c0,0 0.5,-0.4 0.9,-1.2c0.2,-0.4 0.4,-0.8 0.5,-1.4c0.1,-0.5 0.2,-1.1 0.2,-1.7c0,-0.3 0,-0.6 0,-0.9c0,-0.3 0,-0.6 0,-0.8c0,-0.5 -0.1,-1 -0.1,-1.5c0,-0.4 -0.1,-0.8 -0.1,-1.1c0,-0.3 0,-0.4 0,-0.4c0,0 0.1,0.1 0.2,0.4c0.1,0.2 0.2,0.6 0.4,1c0.1,0.4 0.3,0.9 0.3,1.5c0,0.3 0.1,0.6 0.1,0.9c0,0.3 0,0.6 0,0.9c0,0.6 -0.1,1.2 -0.3,1.8c-0.1,0.3 -0.2,0.5 -0.3,0.8c-0.1,0.2 -0.3,0.5 -0.4,0.6c-0.3,0.4 -0.6,0.6 -0.8,0.8c-0.5,0.2 -0.6,0.3 -0.6,0.3z" fill="#59402f"/><path d="M373.19828,248.47907c0,0 0,-0.3 0,-0.8c0.1,-0.5 0.3,-1.1 0.7,-1.6c0.4,-0.5 0.8,-1 1.2,-1.2c0.4,-0.3 0.7,-0.4 0.7,-0.4c0,0 0,0.1 -0.1,0.2c-0.1,0.1 -0.2,0.3 -0.3,0.4c-0.3,0.4 -0.6,0.8 -0.9,1.3c-0.3,0.5 -0.6,1 -0.9,1.3c-0.3,0.5 -0.4,0.8 -0.4,0.8z" fill="#59402f"/><path d="M367.89828,247.97907c0,0 0,-0.4 0.2,-0.9c0.2,-0.5 0.5,-1.2 1,-1.7c0.2,-0.3 0.5,-0.5 0.8,-0.7c0.3,-0.2 0.5,-0.4 0.8,-0.5c0.2,-0.1 0.5,-0.2 0.6,-0.2c0.2,0 0.2,-0.1 0.2,-0.1c0,0 -0.1,0.1 -0.2,0.2c-0.1,0.1 -0.3,0.3 -0.5,0.4c-0.4,0.4 -0.8,0.8 -1.3,1.4c-0.4,0.5 -0.8,1.1 -1.1,1.5c-0.3,0.3 -0.5,0.6 -0.5,0.6z" fill="#59402f"/><path d="M369.49828,242.67907c0,0 0.2,-0.1 0.5,-0.4c0.3,-0.3 0.8,-0.7 1.3,-1.3c0.5,-0.6 1,-1.4 1.3,-2.5c0.4,-1 0.5,-2.2 0.5,-3.6c0.1,-2.7 0.4,-5.9 0.6,-9.3c0.2,-3.4 0.4,-7 0.3,-10.6c-0.1,-1.8 -0.1,-3.6 -0.4,-5.3c-0.2,-1.7 -0.7,-3.4 -1.2,-5c-1,-3.2 -2.2,-6.2 -3.1,-8.7c-1,-2.5 -1.6,-4.7 -2,-6.3c-0.2,-0.8 -0.3,-1.4 -0.4,-1.8c-0.1,-0.4 -0.1,-0.6 -0.1,-0.6c0,0 0.1,0.2 0.2,0.6c0.1,0.4 0.3,1 0.5,1.8c0.2,0.8 0.5,1.7 0.9,2.7c0.4,1 0.8,2.2 1.4,3.4c1,2.5 2.3,5.4 3.3,8.7c0.5,1.6 1,3.3 1.2,5.1c0.3,1.8 0.4,3.6 0.4,5.4c0.1,3.6 -0.1,7.3 -0.4,10.7c-0.2,3.4 -0.6,6.5 -0.8,9.2c0,0.7 -0.1,1.3 -0.2,2c-0.1,0.6 -0.3,1.2 -0.5,1.7c-0.4,1 -0.9,1.9 -1.5,2.5c-0.5,0.6 -1,1 -1.4,1.2c-0.2,0.3 -0.4,0.4 -0.4,0.4z" fill="#59402f"/><path d="M373.99828,249.67907c0,-0.6 0.8,-3.1 1.9,-3.1c1.1,0 0.4,1.1 -0.1,1.7c-0.5,0.7 -1.8,1.8 -1.8,1.4z" fill="#6c5f57"/><path d="M368.89828,249.27907c0,-0.6 0.8,-3.1 1.9,-3.1c1.1,0 0.4,1.1 -0.1,1.7c-0.6,0.7 -1.8,1.8 -1.8,1.4z" fill="#6c5f57"/><path d="M365.69828,248.47907c0,-0.6 0.8,-3.1 1.9,-3.1c1.1,0 0.4,1.1 -0.1,1.7c-0.6,0.7 -1.8,1.7 -1.8,1.4z" fill="#6c5f57"/></g><g fill-rule="nonzero" stroke="none" stroke-width="1" stroke-linecap="butt" stroke-linejoin="miter"><path d="M446.29828,141.97906c14.4,-7.8 24.9,1.8 28.8,8.1c3.9,6.3 0.5,21.5 0.8,30.1c0.3,8.6 2.6,12.3 5.5,23.8c2.9,11.5 1.6,38.7 0,39.7c-3.9,2.5 -22.2,3 -23.8,1.7c-1.5,-1.3 4,-4.1 5.1,-6.8c0.6,-1.5 -0.8,-5.8 -4.2,-12.1c-1.7,-3.1 -3.7,-6.9 -6.7,-10.6c-16.7,-20.7 -17.5,-43.5 -17.5,-43.5c-1.1,-5.8 -2.4,-22.5 12,-30.4z" fill="#8d674a"/><path d="M465.19828,245.67907c0,0 0,-0.3 0,-0.8c0.1,-0.5 0.3,-1.1 0.7,-1.6c0.4,-0.5 0.8,-1 1.2,-1.2c0.4,-0.3 0.7,-0.4 0.7,-0.4c0,0 0,0.1 -0.1,0.2c-0.1,0.1 -0.2,0.3 -0.3,0.4c-0.3,0.4 -0.6,0.8 -0.9,1.3c-0.3,0.5 -0.6,1 -0.9,1.3c-0.3,0.6 -0.4,0.8 -0.4,0.8z" fill="#59402f"/><path d="M459.89828,245.67907c0,0 0,-0.4 0.2,-0.9c0.2,-0.5 0.5,-1.2 1,-1.7c0.2,-0.3 0.5,-0.5 0.8,-0.7c0.3,-0.2 0.5,-0.4 0.8,-0.5c0.2,-0.1 0.5,-0.2 0.6,-0.2c0.2,0 0.2,-0.1 0.2,-0.1c0,0 -0.1,0.1 -0.2,0.2c-0.1,0.1 -0.3,0.3 -0.5,0.4c-0.4,0.4 -0.8,0.8 -1.3,1.4c-0.4,0.5 -0.8,1.1 -1.1,1.5c-0.3,0.3 -0.5,0.6 -0.5,0.6z" fill="#59402f"/><path d="M466.09828,246.97907c0,-0.6 0.8,-3.1 1.9,-3.1c1.1,0 0.4,1.1 -0.1,1.7c-0.6,0.7 -1.8,1.8 -1.8,1.4z" fill="#6c5f57"/><path d="M460.89828,246.57907c0,-0.6 0.8,-3.1 1.9,-3.1c1.1,0 0.4,1.1 -0.1,1.7c-0.5,0.7 -1.8,1.7 -1.8,1.4z" fill="#6c5f57"/><path d="M457.69828,246.37907c0,-0.6 0.8,-3.1 1.9,-3.1c1.1,0 0.4,1.1 -0.1,1.7c-0.6,0.7 -1.8,1.7 -1.8,1.4z" fill="#6c5f57"/><g><path d="M475.79828,182.87907c0,0 6.6,10 8.9,10c0,0 -2.2,1.5 -3.8,0c0,0 4,2 4.6,6.2l-2.7,-1.1c0,0 3.3,6.2 2.7,10.2l-2.4,-3.1c0,0 2.7,6.2 -1.5,9.3" fill="#8d674a"/><path d="M484.39828,192.87907c0,0 -0.2,0 -0.5,-0.1c-0.3,-0.1 -0.7,-0.3 -1.1,-0.6c-0.9,-0.6 -1.9,-1.6 -2.8,-2.7c-0.5,-0.5 -0.9,-1.1 -1.3,-1.7c-0.4,-0.5 -0.7,-1.1 -1,-1.5c-0.5,-0.9 -0.9,-1.5 -0.9,-1.5c0,0 0.5,0.5 1.2,1.3c0.7,0.8 1.6,1.9 2.5,3c0.9,1.1 1.8,2.1 2.6,2.9c0.4,0.4 0.7,0.7 1,0.8c0.2,0 0.3,0.1 0.3,0.1z" fill="#59402f"/><path d="M485.29828,198.97907c0,0 -0.2,-0.4 -0.4,-1c-0.3,-0.6 -0.6,-1.3 -1,-2c-0.2,-0.3 -0.4,-0.7 -0.7,-1c-0.2,-0.3 -0.5,-0.6 -0.7,-0.8c-0.2,-0.2 -0.4,-0.4 -0.5,-0.5c-0.1,-0.1 -0.2,-0.2 -0.2,-0.2c0,0 0.1,0 0.3,0.1c0.2,0.1 0.4,0.2 0.7,0.3c0.3,0.2 0.6,0.4 0.9,0.7c0.3,0.3 0.6,0.6 0.8,1c0.2,0.4 0.4,0.8 0.6,1.1c0.1,0.4 0.2,0.7 0.3,1.1c0,0.8 -0.1,1.2 -0.1,1.2z" fill="#59402f"/><path d="M485.29828,207.67907c0,0 0.1,-0.6 0,-1.6c0,-0.5 -0.1,-1 -0.3,-1.6c-0.1,-0.6 -0.3,-1.2 -0.5,-1.8c-0.2,-0.6 -0.4,-1.2 -0.6,-1.8c-0.2,-0.6 -0.4,-1.1 -0.6,-1.5c-0.2,-0.4 -0.3,-0.8 -0.4,-1.1c-0.1,-0.3 -0.1,-0.4 -0.1,-0.4c0,0 0.1,0.1 0.3,0.4c0.2,0.2 0.4,0.6 0.6,1c0.2,0.4 0.5,0.9 0.8,1.5c0.3,0.5 0.5,1.2 0.7,1.8c0.2,0.6 0.3,1.3 0.4,1.9c0.1,0.6 0.1,1.2 0.1,1.7c0,0.5 -0.1,0.9 -0.2,1.2c-0.1,0.2 -0.2,0.3 -0.2,0.3z" fill="#59402f"/><path d="M482.59828,213.17907c0,0 0.1,-0.1 0.2,-0.3c0.1,-0.2 0.2,-0.5 0.3,-0.8c0.2,-0.7 0.3,-1.7 0.2,-2.7c0,-1 -0.2,-2 -0.2,-2.8c-0.1,-0.8 -0.1,-1.3 -0.1,-1.3c0,0 0.2,0.5 0.5,1.2c0.1,0.4 0.3,0.8 0.3,1.3c0,0.2 0.1,0.5 0.1,0.8c0,0.3 0.1,0.5 0.1,0.8c0,0.5 0,1.1 -0.1,1.6c-0.1,0.5 -0.2,1 -0.4,1.3c-0.2,0.4 -0.4,0.6 -0.6,0.8c-0.1,0.1 -0.3,0.1 -0.3,0.1z" fill="#59402f"/></g><path d="M482.39828,208.07907c0,0 0.2,2.4 0.5,6c0.1,1.8 0.2,3.9 0.3,6.2c0.1,2.3 0.1,4.7 0.1,7.1c0,2.4 -0.1,4.8 -0.2,7.1c-0.1,2.3 -0.4,4.4 -0.7,6.2c-0.2,0.9 -0.4,1.7 -0.7,2.4c-0.1,0.2 -0.2,0.3 -0.2,0.5l-0.1,0.2c0,0.1 -0.1,0.1 -0.2,0.2c-0.3,0.2 -0.6,0.3 -0.8,0.4c-1,0.3 -1.6,0.4 -1.6,0.4c0,0 0.6,-0.2 1.6,-0.6c0.2,-0.1 0.5,-0.2 0.8,-0.4c0,0 0.1,-0.1 0.2,-0.1l0.1,-0.2c0.1,-0.2 0.1,-0.3 0.2,-0.5c0.2,-0.7 0.4,-1.5 0.5,-2.4c0.3,-1.8 0.4,-3.9 0.5,-6.1c0.1,-2.3 0.1,-4.7 0.1,-7.1c0,-2.4 0,-4.8 0,-7.1c0,-2.3 -0.1,-4.4 -0.1,-6.2c-0.3,-3.6 -0.3,-6 -0.3,-6z" fill="#59402f"/><path d="M435.09828,182.57907c0,0 1.4,4 3.7,9.8c1.2,2.9 2.6,6.3 4.3,9.9c0.9,1.7 1.8,3.6 2.9,5.3c0.6,0.8 1.2,1.6 1.9,2.4c0.7,0.8 1.3,1.7 1.9,2.5c2.5,3.4 4.8,6.9 6.8,10.3c1,1.7 2,3.3 2.8,4.9c0.9,1.6 1.6,3.1 2.2,4.6c0.3,0.7 0.5,1.5 0.7,2.2c0.2,0.7 0.4,1.4 0.5,2c0.1,0.6 0.1,1.3 -0.1,1.8c-0.2,0.5 -0.5,1 -0.8,1.3c-0.6,0.7 -1.2,1.2 -1.5,1.5c-0.4,0.3 -0.6,0.5 -0.6,0.5c0,0 0.2,-0.2 0.6,-0.5c0.4,-0.3 0.9,-0.8 1.5,-1.6c0.3,-0.4 0.5,-0.8 0.7,-1.3c0.2,-0.5 0.1,-1.1 0,-1.7c-0.1,-0.6 -0.3,-1.3 -0.5,-2c-0.2,-0.7 -0.4,-1.4 -0.8,-2.1c-1.3,-2.9 -3.2,-6 -5.2,-9.4c-2.1,-3.3 -4.4,-6.9 -6.9,-10.2c-0.6,-0.9 -1.2,-1.7 -1.9,-2.5c-0.7,-0.8 -1.3,-1.6 -1.9,-2.5c-1.2,-1.7 -2.1,-3.6 -2.9,-5.4c-0.8,-1.8 -1.6,-3.5 -2.3,-5.2c-0.7,-1.7 -1.3,-3.3 -1.8,-4.8c-1.1,-3 -1.9,-5.5 -2.5,-7.2c-0.5,-1.6 -0.8,-2.6 -0.8,-2.6z" fill="#59402f"/></g><g fill-rule="nonzero" stroke="none" stroke-width="1" stroke-linecap="butt" stroke-linejoin="miter"><g fill="#8d674a"><path d="M377.69828,115.87907c0,0 2.4,8.7 5.3,11.8c0,0 -2.4,-0.2 -3.2,-1.5c0,0 2.4,2.1 0.7,9.2l-1.4,-2.4c0,0 1.2,5.1 -1.2,9.6l-1.2,-2.4c0,0 0,6.5 -6.2,10.9l-0.3,-3.1c0,0 -0.9,5.8 -11.8,6.7"/><path d="M326.09828,154.67907c-10.9,-0.9 -11.8,-6.7 -11.8,-6.7l-0.3,3.1c-6.2,-4.4 -6.2,-10.9 -6.2,-10.9l-1.2,2.4c-2.4,-4.5 -1.2,-9.6 -1.2,-9.6l-1.4,2.4c-1.7,-7.1 0.7,-9.2 0.7,-9.2c-0.8,1.3 -3.2,1.5 -3.2,1.5c2.9,-3.1 5.3,-11.8 5.3,-11.8"/><path d="M315.09828,150.67907c-10,-6.8 -11.4,-24.6 -8.9,-32.8c2.5,-8.2 10.4,-23.5 19.3,-27.5c11.8,-5.4 37.8,-8.9 50,18.6c12.2,27.5 -4.6,42.1 -15.7,45.7c-11.1,3.6 -33.3,3.7 -44.7,-4z"/></g><path d="M343.89828,116.77907c0,0 -0.1,0 -0.3,-0.1c-0.2,-0.1 -0.5,-0.1 -0.8,-0.2c-0.6,-0.1 -1.4,-0.2 -2.3,-0.2c-0.8,0 -1.7,0 -2.3,0.1c-0.7,0 -1.1,0 -1.1,0c0,0 0.4,-0.2 1,-0.4c0.6,-0.2 1.5,-0.4 2.4,-0.4c0.4,0 0.9,0 1.3,0.1c0.4,0.1 0.8,0.2 1.1,0.3c0.3,0.1 0.5,0.3 0.7,0.4c0.2,0.3 0.3,0.4 0.3,0.4z" fill="#59402f"/><path d="M337.79828,114.77907c0,0 0.3,-0.2 0.7,-0.3c0.4,-0.1 1,-0.2 1.6,-0.2c0.6,0 1.2,0.1 1.6,0.3c0.4,0.2 0.7,0.4 0.7,0.4c0,0 -0.1,0 -0.2,0c-0.1,0 -0.3,0 -0.5,0c-0.4,0 -1,0 -1.6,0c-0.6,0 -1.1,0 -1.6,0c-0.3,-0.1 -0.7,-0.2 -0.7,-0.2z" fill="#59402f"/><path d="M368.79828,126.37907c0,0 0.3,0.6 0.5,1.5c0.2,0.9 0.4,2.2 0.4,3.4c0,0.3 0,0.6 0,0.9c0,0.3 -0.1,0.6 -0.1,0.9c0,0.3 -0.1,0.6 -0.1,0.8c0,0.3 -0.1,0.5 -0.2,0.7c-0.1,0.5 -0.3,0.8 -0.4,1.1c-0.1,0.3 -0.2,0.4 -0.2,0.4c0,0 0,-0.2 0,-0.4c0,-0.3 0.1,-0.7 0.1,-1.1c0.1,-0.9 0.2,-2.1 0.2,-3.4c0.1,-2.3 -0.2,-4.8 -0.2,-4.8z" fill="#59402f"/><g fill="#59402f"><path d="M367.69828,136.47906c0,0 0.1,0.2 0.1,0.4c0,0.2 0,0.6 0,0.9c0,0.3 -0.2,0.6 -0.3,0.9c-0.1,0.2 -0.2,0.4 -0.2,0.4c0,0 -0.1,-0.2 -0.1,-0.4c0,-0.2 0,-0.6 0,-0.9c0,-0.3 0.2,-0.6 0.3,-0.9c0.1,-0.3 0.2,-0.4 0.2,-0.4z"/><path d="M365.99828,138.67907c0,0 0,0.2 0.1,0.4c0,0.2 0,0.5 -0.1,0.8c-0.1,0.3 -0.2,0.6 -0.3,0.8c-0.1,0.2 -0.2,0.3 -0.2,0.3c0,0 0,-0.2 -0.1,-0.4c0,-0.2 0,-0.5 0.1,-0.8c0.1,-0.3 0.2,-0.6 0.3,-0.8c0.1,-0.1 0.2,-0.3 0.2,-0.3z"/></g><path d="M364.49828,140.97906c0,0 0,0.5 -0.3,1.3c-0.3,0.8 -0.8,1.8 -1.5,2.6c-0.3,0.4 -0.7,0.8 -1.1,1.2c-0.4,0.3 -0.8,0.6 -1.1,0.8c-0.3,0.2 -0.7,0.4 -0.9,0.5c-0.2,0.1 -0.3,0.1 -0.3,0.1c0,0 0.1,-0.1 0.3,-0.3c0.2,-0.1 0.4,-0.4 0.7,-0.6c0.6,-0.5 1.3,-1.3 2,-2.1c0.3,-0.4 0.6,-0.8 0.9,-1.2c0.3,-0.4 0.5,-0.8 0.7,-1.1c0.4,-0.7 0.6,-1.2 0.6,-1.2z" fill="#59402f"/><path d="M316.89828,124.77907c0,0 0,0.4 -0.1,1c-0.1,0.6 -0.2,1.4 -0.3,2.2c-0.1,0.8 -0.2,1.6 -0.2,2.2c0,0.3 -0.1,0.6 -0.1,0.7c0,0.2 0,0.3 0,0.3c0,0 -0.2,-0.4 -0.3,-1c-0.1,-0.3 -0.1,-0.7 -0.1,-1.1c0,-0.4 0,-0.8 0.1,-1.2c0.1,-0.8 0.3,-1.6 0.6,-2.2c0.2,-0.5 0.4,-0.9 0.4,-0.9z" fill="#59402f"/><path d="M317.09828,131.67907c0,0 0,0.2 0.1,0.4c0,0.2 0,0.5 -0.1,0.8c-0.1,0.3 -0.2,0.6 -0.3,0.8c-0.1,0.2 -0.2,0.3 -0.2,0.3c0,0 0,-0.2 -0.1,-0.4c0,-0.2 0,-0.5 0.1,-0.8c0.1,-0.3 0.2,-0.6 0.3,-0.8c0.1,-0.2 0.2,-0.3 0.2,-0.3z" fill="#59402f"/><path d="M317.79828,134.47906c0,0 0,0.6 0,1.5c0,0.4 0,0.9 0.1,1.5c0.1,0.5 0.1,1.1 0.3,1.7c0.2,1.1 0.6,2.2 1,3c0.2,0.4 0.4,0.7 0.5,0.9c0.1,0.2 0.2,0.4 0.2,0.4c0,0 -0.1,-0.1 -0.3,-0.3c-0.2,-0.2 -0.5,-0.5 -0.7,-0.8c-0.1,-0.2 -0.3,-0.4 -0.4,-0.6c-0.1,-0.2 -0.3,-0.5 -0.4,-0.7c-0.2,-0.5 -0.4,-1.1 -0.5,-1.7c-0.1,-0.6 -0.2,-1.2 -0.2,-1.8c0,-0.6 0,-1.1 0.1,-1.5c0.1,-1 0.3,-1.6 0.3,-1.6z" fill="#59402f"/><path d="M369.79828,99.57907c0,0 0.4,0.3 1,0.9c0.6,0.6 1.4,1.6 2.2,2.8c0.4,0.6 0.8,1.3 1.2,2c0.4,0.7 0.8,1.5 1.2,2.4c0.4,0.8 0.7,1.7 1.1,2.6c0.3,0.9 0.7,1.8 0.9,2.8c0.3,0.9 0.5,1.9 0.8,2.8c0.3,0.9 0.5,1.8 0.8,2.7c0.6,1.7 1.1,3.4 1.6,4.7c0.5,1.4 1,2.5 1.5,3.2c0.2,0.4 0.4,0.6 0.6,0.8c0.2,0.2 0.3,0.2 0.3,0.2c0,0 -0.1,0 -0.3,-0.2c-0.2,-0.1 -0.4,-0.4 -0.7,-0.7c-0.5,-0.7 -1.1,-1.8 -1.7,-3.1c-0.6,-1.3 -1.2,-2.9 -1.8,-4.7c-0.3,-0.9 -0.6,-1.8 -0.9,-2.7c-0.3,-0.9 -0.6,-1.9 -0.8,-2.8c-0.3,-0.9 -0.6,-1.9 -0.9,-2.8c-0.3,-0.9 -0.7,-1.8 -1,-2.6c-0.4,-0.8 -0.7,-1.6 -1.1,-2.4c-0.4,-0.7 -0.8,-1.4 -1.1,-2.1c-0.7,-1.2 -1.4,-2.2 -2,-2.9c-0.6,-0.6 -0.9,-0.9 -0.9,-0.9z" fill="#59402f"/><path d="M379.99828,126.67907c0,0 0.3,0.5 0.7,1.3c0.2,0.4 0.3,0.9 0.4,1.4c0.1,0.5 0.2,1.1 0.2,1.7c0,0.6 0,1.1 -0.1,1.7c-0.1,0.5 -0.2,1 -0.3,1.4c-0.1,0.4 -0.3,0.7 -0.3,1c-0.1,0.2 -0.1,0.4 -0.1,0.4c0,0 0,-0.1 0,-0.4c0,-0.2 0.1,-0.6 0.1,-1c0,-0.4 0.1,-0.9 0.1,-1.4c0,-0.5 0,-1.1 0,-1.6c0,-1.1 -0.2,-2.2 -0.3,-3c-0.2,-1 -0.4,-1.5 -0.4,-1.5z" fill="#59402f"/><path d="M378.99828,132.97906c0,0 0.1,0.6 0.3,1.5c0.1,0.9 0.1,2.1 0,3.3c-0.1,1.2 -0.4,2.4 -0.7,3.2c-0.2,0.4 -0.4,0.7 -0.5,1c-0.1,0.2 -0.2,0.3 -0.2,0.3c0,0 0,-0.1 0.1,-0.4c0.1,-0.2 0.2,-0.6 0.3,-1c0.2,-0.8 0.3,-2 0.4,-3.2c0.1,-1.2 0.2,-2.3 0.2,-3.2c0,-0.9 0.1,-1.5 0.1,-1.5z" fill="#59402f"/><path d="M376.59828,140.17907c0,0 0,0.8 -0.2,2c-0.1,0.6 -0.3,1.3 -0.5,2c-0.2,0.7 -0.5,1.5 -0.9,2.2c-0.2,0.4 -0.4,0.7 -0.6,1.1c-0.2,0.3 -0.4,0.7 -0.7,1c-0.2,0.3 -0.5,0.6 -0.7,0.8c-0.3,0.2 -0.5,0.5 -0.7,0.7c-0.2,0.2 -0.5,0.3 -0.7,0.5c-0.2,0.1 -0.4,0.2 -0.6,0.3c-0.3,0.1 -0.5,0.2 -0.5,0.2c0,0 0.2,-0.1 0.4,-0.3c0.1,-0.1 0.3,-0.2 0.5,-0.4c0.2,-0.2 0.4,-0.4 0.6,-0.6c0.2,-0.2 0.4,-0.5 0.6,-0.7c0.2,-0.3 0.4,-0.6 0.6,-0.8c0.4,-0.6 0.8,-1.3 1.1,-2c0.2,-0.4 0.3,-0.7 0.5,-1.1c0.1,-0.4 0.3,-0.7 0.4,-1c0.3,-0.7 0.5,-1.3 0.7,-1.9c0.5,-1.2 0.7,-2 0.7,-2z" fill="#59402f"/><path d="M316.09828,99.27907c0,0 -0.3,0.4 -0.9,1c-0.6,0.7 -1.3,1.7 -2.1,2.9c-0.8,1.3 -1.7,2.8 -2.5,4.4c-0.4,0.8 -0.9,1.7 -1.2,2.6c-0.4,0.9 -0.8,1.8 -1.2,2.7c-0.7,1.9 -1.4,3.8 -2,5.5c-0.6,1.8 -1.3,3.4 -1.9,4.8c-0.6,1.4 -1.2,2.5 -1.6,3.3c-0.2,0.4 -0.5,0.6 -0.7,0.8c-0.2,0.1 -0.3,0.2 -0.3,0.2c0,0 0.1,0 0.3,-0.2c0.2,-0.2 0.4,-0.4 0.6,-0.8c0.4,-0.8 0.9,-1.9 1.4,-3.3c0.5,-1.4 1.1,-3.1 1.7,-4.8c0.6,-1.8 1.2,-3.7 2,-5.5c0.4,-0.9 0.8,-1.9 1.2,-2.8c0.4,-0.9 0.9,-1.8 1.3,-2.6c0.5,-0.8 0.9,-1.6 1.4,-2.3c0.5,-0.7 0.9,-1.4 1.4,-2c0.9,-1.2 1.7,-2.2 2.3,-2.8c0.4,-0.8 0.8,-1.1 0.8,-1.1z" fill="#59402f"/><path d="M304.39828,126.67907c0,0 -0.2,0.5 -0.3,1.4c-0.1,0.8 -0.3,1.9 -0.3,3c0,0.5 0,1.1 0,1.6c0,0.5 0.1,1 0.1,1.4c0,0.4 0.1,0.8 0.1,1c0,0.2 0,0.4 0,0.4c0,0 -0.1,-0.1 -0.1,-0.4c-0.1,-0.2 -0.2,-0.6 -0.3,-1c-0.1,-0.4 -0.2,-0.9 -0.3,-1.4c-0.1,-0.5 -0.1,-1.1 -0.1,-1.7c0,-0.6 0.1,-1.1 0.2,-1.7c0.1,-0.5 0.3,-1 0.4,-1.4c0.2,-0.8 0.6,-1.2 0.6,-1.2z" fill="#59402f"/><path d="M305.39828,132.97906c0,0 0,0.6 0.1,1.5c0.1,0.9 0.1,2 0.2,3.2c0.1,1.2 0.2,2.3 0.4,3.2c0.1,0.4 0.2,0.8 0.3,1c0.1,0.2 0.1,0.4 0.1,0.4c0,0 -0.1,-0.1 -0.2,-0.3c-0.2,-0.2 -0.3,-0.5 -0.5,-1c-0.4,-0.8 -0.6,-2 -0.7,-3.2c-0.1,-1.2 -0.1,-2.4 0,-3.3c0.2,-0.9 0.3,-1.5 0.3,-1.5z" fill="#59402f"/><path d="M307.79828,140.17907c0,0 0.2,0.8 0.6,1.9c0.2,0.6 0.4,1.2 0.7,1.9c0.1,0.3 0.3,0.7 0.4,1c0.1,0.4 0.3,0.7 0.5,1.1c0.3,0.7 0.7,1.4 1.1,2c0.2,0.3 0.4,0.6 0.6,0.8c0.2,0.2 0.4,0.5 0.6,0.7c0.2,0.2 0.4,0.4 0.6,0.6c0.2,0.2 0.3,0.3 0.5,0.4c0.3,0.2 0.4,0.3 0.4,0.3c0,0 -0.2,-0.1 -0.5,-0.2c-0.2,-0.1 -0.4,-0.2 -0.6,-0.3c-0.2,-0.1 -0.4,-0.3 -0.7,-0.5c-0.2,-0.2 -0.5,-0.4 -0.7,-0.7c-0.3,-0.2 -0.5,-0.5 -0.7,-0.8c-0.2,-0.3 -0.4,-0.6 -0.7,-1c-0.2,-0.3 -0.4,-0.7 -0.6,-1.1c-0.3,-0.7 -0.7,-1.5 -0.9,-2.2c-0.2,-0.7 -0.4,-1.4 -0.5,-2c-0.1,-1.1 -0.1,-1.9 -0.1,-1.9z" fill="#59402f"/><path d="M315.59828,150.97906c0,0 1.1,0.6 2.7,1.4c0.8,0.4 1.8,0.8 2.9,1.2c1.1,0.4 2.2,0.8 3.4,1.1c0.6,0.2 1.2,0.3 1.7,0.5c0.6,0.2 1.2,0.2 1.7,0.3c0.6,0.1 1.1,0.2 1.6,0.3c0.5,0.1 1,0.1 1.5,0.2c0.5,0 0.9,0.1 1.2,0.1c0.4,0 0.7,0 1,0.1c0.5,0 0.8,0.1 0.8,0.1c0,0 -0.3,0 -0.8,0.1c-0.5,0 -1.3,0.1 -2.2,0.1c-0.5,0 -1,0 -1.5,-0.1c-0.5,-0.1 -1.1,-0.1 -1.7,-0.2c-0.6,-0.1 -1.2,-0.2 -1.8,-0.3c-0.6,-0.1 -1.2,-0.2 -1.8,-0.4c-1.2,-0.3 -2.3,-0.8 -3.4,-1.2c-1.1,-0.4 -2,-0.9 -2.8,-1.4c-1.6,-1.1 -2.5,-1.9 -2.5,-1.9z" fill="#59402f"/><path d="M327.69828,89.37907c0,0 0.4,-0.2 1.2,-0.5c0.8,-0.3 1.9,-0.7 3.4,-1.1c0.7,-0.2 1.5,-0.4 2.3,-0.6c0.8,-0.2 1.7,-0.3 2.6,-0.5c0.9,-0.1 1.9,-0.2 2.8,-0.3c1,0 1.9,-0.1 2.9,-0.1h1.5c0.5,0 1,0.1 1.5,0.1c0.5,0 1,0.1 1.4,0.1c0.5,0.1 0.9,0.1 1.4,0.2c0.5,0.1 0.9,0.1 1.3,0.2c0.4,0.1 0.8,0.2 1.3,0.3c0.4,0.1 0.8,0.2 1.2,0.3c0.4,0.1 0.7,0.2 1.1,0.4c0.7,0.2 1.3,0.5 1.9,0.7c0.5,0.3 1,0.5 1.4,0.7c0.8,0.4 1.2,0.6 1.2,0.6c0,0 -0.5,-0.2 -1.3,-0.5c-0.4,-0.2 -0.9,-0.3 -1.4,-0.5c-0.6,-0.2 -1.2,-0.4 -1.9,-0.6c-0.3,-0.1 -0.7,-0.2 -1.1,-0.3c-0.4,-0.1 -0.8,-0.2 -1.2,-0.2c-0.4,-0.1 -0.8,-0.2 -1.3,-0.3c-0.4,-0.1 -0.9,-0.1 -1.3,-0.2c-0.4,-0.1 -0.9,-0.1 -1.4,-0.2c-0.5,0 -0.9,-0.1 -1.4,-0.1c-0.5,0 -1,-0.1 -1.4,-0.1h-1.4c-1,0 -1.9,0 -2.9,0.1c-0.9,0.1 -1.9,0.2 -2.8,0.3c-0.9,0.1 -1.8,0.2 -2.6,0.4c-0.8,0.1 -1.6,0.3 -2.3,0.4c-1.4,0.3 -2.6,0.6 -3.4,0.9c-0.9,0.2 -1.3,0.4 -1.3,0.4z" fill="#59402f"/></g><path d="M352.39828,117.47907c0,-1.38071 0.71635,-2.5 1.6,-2.5c0.88365,0 1.6,1.11929 1.6,2.5c0,1.38071 -0.71635,2.5 -1.6,2.5c-0.88366,0 -1.6,-1.11929 -1.6,-2.5z" fill="#332010" fill-rule="nonzero" stroke="none" stroke-width="1" stroke-linecap="butt" stroke-linejoin="miter"/><path d="M328.19828,117.47907c0,-1.38071 0.71635,-2.5 1.6,-2.5c0.88366,0 1.6,1.11929 1.6,2.5c0,1.38071 -0.71635,2.5 -1.6,2.5c-0.88365,0 -1.6,-1.11929 -1.6,-2.5z" fill="#332010" fill-rule="nonzero" stroke="none" stroke-width="1" stroke-linecap="butt" stroke-linejoin="miter"/><g fill-rule="nonzero" stroke="none" stroke-width="1" stroke-linecap="butt" stroke-linejoin="miter"><path d="M327.19828,139.17907c0,-7.9 7.3,-21.1 12.3,-21.3c7.9,-0.3 11.1,16.4 11.1,22.5c0,6.1 -6.4,7 -6.4,7c-6.2,7.3 -12.3,-0.3 -12.3,-0.3c0,0 -4.7,0 -4.7,-7.9z" fill="#9e7b5c"/><path d="M337.99828,139.87907c0,0 0.1,0.3 0.2,0.9c0.1,0.5 0.1,1.2 0.1,1.9c0,0.7 -0.1,1.4 -0.1,1.9c-0.1,0.5 -0.2,0.9 -0.2,0.9c0,0 -0.1,-0.3 -0.2,-0.9c-0.1,-0.5 -0.1,-1.2 -0.1,-1.9c0,-0.7 0.1,-1.4 0.1,-1.9c0.1,-0.6 0.2,-0.9 0.2,-0.9z" fill="#59402f"/><path d="M333.79828,146.07907c0,0 0.5,-0.3 1.3,-0.5c0.4,-0.1 0.9,-0.2 1.4,-0.3c0.5,-0.1 1.1,-0.1 1.7,-0.2c0.6,0 1.2,0 1.7,0.1c0.5,0.1 1,0.2 1.4,0.3c0.4,0.1 0.7,0.3 1,0.4c0.2,0.1 0.3,0.2 0.3,0.2c0,0 -0.1,0 -0.4,-0.1c-0.2,-0.1 -0.6,-0.1 -1,-0.2c-0.8,-0.1 -1.9,-0.2 -3,-0.2c-1.1,0 -2.2,0.1 -3,0.2c-0.9,0.3 -1.4,0.3 -1.4,0.3z" fill="#59402f"/><path d="M338.19828,133.77907c2.2,0.1 5.5,0.4 5.8,2.8c0.4,2.4 -2.3,1.8 -3.2,2.5c-0.9,0.7 -0.8,2.5 -3.6,2.4c-1.6,-0.1 -1.9,-2.5 -2.8,-2.5c-0.9,0 -2.1,-1.3 -2.1,-2.3c0.1,-1 1.7,-3.2 5.9,-2.9z" fill="#332721"/><path d="M334.69828,149.67907c0,0 0.5,0.1 1.2,0.3c0.4,0.1 0.8,0.2 1.2,0.2c0.4,0.1 0.9,0.1 1.4,0.1c0.5,0 0.9,0 1.3,-0.1c0.2,-0.1 0.4,-0.1 0.6,-0.1c0.2,-0.1 0.4,-0.1 0.5,-0.2c0.3,-0.1 0.6,-0.3 0.8,-0.4c0.2,-0.1 0.3,-0.2 0.3,-0.2c0,0 -0.1,0.1 -0.2,0.3c-0.1,0.2 -0.4,0.4 -0.7,0.6c-0.2,0.1 -0.3,0.2 -0.5,0.3c-0.2,0.1 -0.4,0.2 -0.7,0.2c-0.5,0.1 -1,0.2 -1.5,0.1c-1,0 -2,-0.3 -2.7,-0.7c-0.6,-0.1 -1,-0.4 -1,-0.4z" fill="#59402f"/></g><path d="M357.74483,110.05384c0.32006,0.9474 -2.45685,2.41327 -3.68847,2.82934c-1.32636,0.44808 -2.62454,0.04222 -2.9766,-0.99992c-0.32006,-0.9474 0.43403,-2.15212 1.76039,-2.6002c1.23162,-0.41607 4.58463,-0.17663 4.90468,0.77077z" fill="#9e7b5c" fill-rule="nonzero" stroke="none" stroke-width="1" stroke-linecap="butt" stroke-linejoin="miter"/><path d="M332.4769,109.97987c1.06778,0.90545 1.32468,2.30331 0.67793,3.06601c-0.71143,0.83897 -2.0678,0.73771 -3.13558,-0.16775c-0.99151,-0.84078 -3.03251,-3.22705 -2.38576,-3.98976c0.64675,-0.7627 3.77563,0.18604 4.84341,1.09149z" fill="#9e7b5c" fill-rule="nonzero" stroke="none" stroke-width="1" stroke-linecap="butt" stroke-linejoin="miter"/><g fill-rule="nonzero" stroke="none" stroke-width="1" stroke-linecap="butt" stroke-linejoin="miter"><path d="M357.39828,91.27907c0,0 2.4,-7.7 6.8,-7.9c4.4,-0.2 14.4,5.1 5.5,16.6" fill="#8d674a"/><path d="M364.19828,85.77907c0,0 0.3,0.6 0.6,1.5c0.1,0.5 0.3,1 0.3,1.6c0.1,0.6 0.1,1.2 0.1,1.9c0,0.3 -0.1,0.6 -0.1,1c-0.1,0.3 -0.1,0.6 -0.3,0.9c-0.1,0.3 -0.2,0.6 -0.4,0.8c-0.1,0.2 -0.3,0.5 -0.4,0.7c-0.3,0.4 -0.6,0.7 -0.8,0.8c-0.2,0.2 -0.3,0.3 -0.3,0.3c0,0 0.1,-0.1 0.3,-0.4c0.1,-0.1 0.2,-0.2 0.3,-0.4c0.1,-0.2 0.2,-0.4 0.3,-0.5c0.1,-0.2 0.2,-0.4 0.3,-0.7c0.1,-0.2 0.2,-0.5 0.3,-0.8c0.1,-0.5 0.2,-1.1 0.3,-1.7c0,-0.6 0.1,-1.2 0,-1.8c0,-0.6 -0.1,-1.1 -0.1,-1.6c-0.3,-0.9 -0.4,-1.6 -0.4,-1.6z" fill="#59402f"/><g fill="#59402f"><path d="M365.59828,94.67907c0,0 0,0.1 -0.1,0.3c-0.1,0.2 -0.3,0.4 -0.5,0.6c-0.2,0.2 -0.4,0.3 -0.6,0.4c-0.2,0.1 -0.3,0.1 -0.3,0.1c0,0 0,-0.1 0.1,-0.3c0.1,-0.2 0.3,-0.4 0.5,-0.6c0.2,-0.2 0.4,-0.3 0.6,-0.4c0.1,0 0.3,-0.1 0.3,-0.1z"/><path d="M366.59828,96.07907c0,0 -0.1,0.5 -0.4,0.7c-0.3,0.3 -0.7,0.3 -0.8,0.3c0,0 0.1,-0.5 0.4,-0.7c0.3,-0.3 0.8,-0.3 0.8,-0.3z"/></g><path d="M357.59828,92.07907c0,0 0.1,-1.1 0.6,-2.8c0.3,-0.8 0.6,-1.7 1.2,-2.7c0.6,-0.9 1.3,-1.8 2.3,-2.5c0.5,-0.3 1,-0.6 1.6,-0.7c0.6,-0.1 1.1,-0.2 1.7,-0.2c0.6,0 1.1,0.1 1.6,0.3c0.5,0.1 0.9,0.3 1.3,0.5c0.4,0.2 0.7,0.4 1,0.6c0.3,0.2 0.5,0.4 0.7,0.5c0.4,0.3 0.6,0.5 0.6,0.5c0,0 -0.2,-0.1 -0.7,-0.4c-0.4,-0.3 -1.1,-0.6 -1.8,-0.9c-0.4,-0.2 -0.8,-0.3 -1.3,-0.4c-0.5,-0.1 -0.9,-0.2 -1.4,-0.2c-0.5,0 -1,0.1 -1.5,0.2c-0.5,0.2 -1,0.4 -1.4,0.7c-0.9,0.6 -1.6,1.4 -2.2,2.3c-0.6,0.9 -1,1.7 -1.3,2.5c-0.7,1.6 -1,2.7 -1,2.7z" fill="#59402f"/></g><g fill-rule="nonzero" stroke="none" stroke-width="1" stroke-linecap="butt" stroke-linejoin="miter"><path d="M316.19828,99.97907c-8.9,-11.5 1.1,-16.8 5.5,-16.6c4.4,0.2 6.8,7.9 6.8,7.9" fill="#8d674a"/><path d="M321.69828,85.77907c0,0 -0.1,0.6 -0.2,1.6c0,0.5 -0.1,1 -0.1,1.6c0,0.6 0,1.2 0,1.8c0,0.6 0.1,1.2 0.3,1.7c0.1,0.3 0.1,0.5 0.3,0.8c0.1,0.2 0.2,0.5 0.3,0.7c0.1,0.2 0.2,0.4 0.3,0.5c0.1,0.2 0.2,0.3 0.3,0.4c0.2,0.2 0.3,0.4 0.3,0.4c0,0 -0.1,-0.1 -0.3,-0.3c-0.2,-0.2 -0.5,-0.4 -0.8,-0.8c-0.2,-0.2 -0.3,-0.4 -0.4,-0.7c-0.2,-0.2 -0.2,-0.5 -0.4,-0.8c-0.1,-0.3 -0.2,-0.6 -0.3,-0.9c0,-0.3 -0.1,-0.6 -0.1,-1c0,-0.6 0,-1.3 0.1,-1.9c0.1,-0.6 0.2,-1.1 0.3,-1.6c0.1,-0.9 0.4,-1.5 0.4,-1.5z" fill="#59402f"/><g fill="#59402f"><path d="M320.29828,94.67907c0,0 0.1,0 0.3,0.1c0.2,0.1 0.4,0.2 0.6,0.4c0.2,0.2 0.4,0.4 0.5,0.6c0.1,0.2 0.1,0.3 0.1,0.3c0,0 -0.1,0 -0.3,-0.1c-0.2,-0.1 -0.4,-0.2 -0.6,-0.4c-0.2,-0.2 -0.4,-0.4 -0.5,-0.6c-0.1,-0.1 -0.1,-0.3 -0.1,-0.3z"/><path d="M319.29828,96.07907c0,0 0.5,0.1 0.8,0.3c0.3,0.2 0.4,0.7 0.4,0.7c0,0 -0.5,-0.1 -0.8,-0.3c-0.3,-0.2 -0.4,-0.7 -0.4,-0.7z"/></g><path d="M315.39828,85.57907c0,0 0.2,-0.2 0.6,-0.5c0.2,-0.2 0.5,-0.3 0.7,-0.5c0.3,-0.2 0.6,-0.4 1,-0.6c0.2,-0.1 0.4,-0.2 0.6,-0.3c0.2,-0.1 0.5,-0.1 0.7,-0.2c0.2,-0.1 0.5,-0.1 0.8,-0.2c0.3,0 0.5,-0.1 0.8,-0.1c0.3,0 0.6,0 0.9,0c0.3,0 0.6,0.1 0.9,0.2c0.3,0 0.6,0.2 0.8,0.3c0.3,0.1 0.6,0.2 0.8,0.4c0.5,0.4 1,0.7 1.4,1.1c0.4,0.4 0.8,0.8 1.1,1.3c0.3,0.5 0.6,0.9 0.8,1.4c0.2,0.5 0.4,0.9 0.6,1.3c0.2,0.4 0.3,0.8 0.4,1.1c0.1,0.3 0.2,0.6 0.2,0.9c0.1,0.5 0.2,0.8 0.2,0.8c0,0 -0.1,-0.3 -0.3,-0.7c-0.1,-0.2 -0.2,-0.5 -0.4,-0.8c-0.1,-0.3 -0.3,-0.7 -0.5,-1.1c-0.2,-0.4 -0.4,-0.8 -0.6,-1.2c-0.2,-0.4 -0.6,-0.8 -0.8,-1.3c-0.3,-0.5 -0.7,-0.8 -1,-1.2c-0.3,-0.4 -0.8,-0.7 -1.3,-1c-0.2,-0.2 -0.5,-0.2 -0.7,-0.4c-0.2,-0.1 -0.5,-0.2 -0.8,-0.3c-0.3,-0.1 -0.5,-0.1 -0.8,-0.2c-0.3,0 -0.5,0 -0.8,0c-0.3,0 -0.5,0 -0.8,0.1c-0.2,0 -0.5,0 -0.7,0.1c-0.2,0.1 -0.5,0.1 -0.7,0.2c-0.2,0.1 -0.4,0.1 -0.6,0.2c-0.8,0.3 -1.4,0.6 -1.9,0.9c-0.3,0.2 -0.6,0.3 -0.6,0.3z" fill="#59402f"/></g></g></g></svg>